<svg id="ff78368c-769b-473a-b7b0-bd0a21cd6720" data-name="图层 1" xmlns="http://www.w3.org/2000/svg" xmlns:xlink="http://www.w3.org/1999/xlink" viewBox="0 0 1843 411.5858">
  <defs>
    <clipPath id="f26fddf3-5273-4837-a5de-9a9f736cb16e" transform="translate(-28 -27.83705)">
      <polyline points="232.454 115.933 172.657 151.254 172.657 191.982 233.369 156.878 337.698 216.678 337.838 176.401 232.454 115.933" style="fill: none;clip-rule: evenodd"/>
    </clipPath>
    <linearGradient id="a5bf0298-5659-4c2e-bbd4-075810ed59fe" x1="643.44577" y1="775.7043" x2="649.00502" y2="775.7043" gradientTransform="translate(-18973.9182 -13918.76595) scale(29.7128 18.1219)" gradientUnits="userSpaceOnUse">
      <stop offset="0" stop-color="#41bbc7"/>
      <stop offset="1" stop-color="#00a1a7"/>
    </linearGradient>
    <clipPath id="ec3e7979-2752-490f-af49-37abe800b4e2" transform="translate(-28 -27.83705)">
      <polyline points="232.454 115.933 172.657 151.254 172.657 191.982 232.93 157.134 232.538 115.985 232.454 115.933" style="fill: none;clip-rule: evenodd"/>
    </clipPath>
    <linearGradient id="ee63ef9f-1344-4110-9bb8-78ac200eb884" x1="715.75468" y1="752.73437" x2="721.31358" y2="752.73437" gradientTransform="translate(7965.4997 10423.07465) rotate(180) scale(10.8425 13.6794)" gradientUnits="userSpaceOnUse">
      <stop offset="0" stop-color="#41bbc7"/>
      <stop offset="1" stop-color="#80cce3"/>
    </linearGradient>
    <clipPath id="adfad77b-64cd-45ca-b311-962a175bf66a" transform="translate(-28 -27.83705)">
      <polyline points="167.169 153.784 132.418 173.941 132.418 294.345 190.901 327.828 226.404 306.5 167.169 271.407 167.169 153.784" style="fill: none;clip-rule: evenodd"/>
    </clipPath>
    <linearGradient id="b14b7891-13c9-4fda-98f3-7c1a9b4fadb2" x1="653.84914" y1="729.71623" x2="659.40842" y2="729.71623" gradientTransform="translate(-12185.4639 20770.04595) rotate(-90) scale(31.307 16.9064)" gradientUnits="userSpaceOnUse">
      <stop offset="0" stop-color="#fccf00"/>
      <stop offset="0.39" stop-color="#fccf00"/>
      <stop offset="1" stop-color="#ef8200"/>
    </linearGradient>
    <clipPath id="e0964139-f3e1-47ab-bc78-9e2381b1fd54" transform="translate(-28 -27.83705)">
      <polyline points="132.418 294.345 190.901 327.828 226.404 306.5 167.22 271.44 132.418 294.345" style="fill: none;clip-rule: evenodd"/>
    </clipPath>
    <linearGradient id="a67bedeb-05a3-414c-bb3c-281e5fb78f2a" x1="697.30922" y1="736.50455" x2="702.86769" y2="736.50455" gradientTransform="translate(12053.0981 7742.08905) rotate(180) scale(16.9999 10.1429)" gradientUnits="userSpaceOnUse">
      <stop offset="0" stop-color="#fccf00"/>
      <stop offset="1" stop-color="#f9be00"/>
    </linearGradient>
    <clipPath id="ead7f68c-ae30-4c57-a2af-d56ca61a2d76" transform="translate(-28 -27.83705)">
      <polyline points="337.698 290.686 232.823 351.607 197.701 330.542 299.567 271.269 337.698 290.686" style="fill: none;clip-rule: evenodd"/>
    </clipPath>
    <linearGradient id="b83a2744-fb7f-4add-8a13-d9f04cd158c0" x1="640.58506" y1="786.53184" x2="646.14438" y2="786.53184" gradientTransform="translate(-15961.7687 -11083.04285) scale(25.1824 14.4516)" gradientUnits="userSpaceOnUse">
      <stop offset="0" stop-color="#1d2087"/>
      <stop offset="1" stop-color="#00a1e1"/>
    </linearGradient>
  </defs>
  <path d="M233.78955,93.70417a139.92579,139.92579,0,1,1-139.923,139.923,139.94347,139.94347,0,0,1,139.923-139.923m0-65.86712c113.63665,0,205.7929,92.15681,205.7929,205.79012,0,113.63887-92.15625,205.79568-205.7929,205.79568C120.15624,439.42285,28,347.266,28,233.62717,28,119.99386,120.15624,27.83705,233.78955,27.83705Z" transform="translate(-28 -27.83705)" style="fill: #20408e;fill-rule: evenodd"/>
  <path d="M1662.27016,163.1053c0-1.04514-.17895-3.469-.532-7.291a28.11855,28.11855,0,0,0-7.80686-16.14573,1.06123,1.06123,0,0,1-.532-1.57994c0-.33411.532-.51034,1.57994-.51034q19.81317,7.30485,23.43669,20.83607c1.04242,5.55925-1.02623,9.38124-6.2486,11.4743-5.20618,1.37647-8.51788-.86614-9.89713-6.7834M1625.782,141.22353q22.41073,8.33888,23.96926,20.83663,1.57105,8.33887-5.71713,11.98463c-5.55925,1.75895-9.04985-.15232-10.42854-5.71435-.69-1.40038-.869-4.001-.53208-7.82576q-1.03485-8.33888-8.33887-17.19087a1.03484,1.03484,0,0,1-.51034-1.57716A2.17425,2.17425,0,0,1,1625.782,141.22353Zm66.19572,46.8984q7.80927,4.70229,15.63534,10.42915a8.24859,8.24859,0,0,1-1.04787,3.13764q-11.47428-.537-25.527,6.75894a.648.648,0,0,0,0,1.04514v1.04514l-3.1382,2.60061v9.3868h29.71309a21.97556,21.97556,0,0,0,2.08972-3.13542,51.31691,51.31691,0,0,1,6.75949-7.29373c.358-.3369.86836-.3369,1.57939,0q10.93735,6.26583,15.09837,10.96117c.358,1.37869,0,2.2476-1.02068,2.60006H1677.9l.5159,22.41657q1.06654,14.57635-17.18809,16.67775c-1.73726,0-2.77962-.532-3.13764-1.57994-2.0686-7.64675-7.62785-12.31819-16.67775-14.07491q-2.06887-1.034.53207-2.60284,21.35161,3.13542,20.83607-5.20124V225.65743H1608.589l-2.60067-3.6452a17.73711,17.73711,0,0,0,4.15832.51312h52.63392V211.58308l-1.04241-6.2486c0-.35579.35307-.71381,1.04241-1.04514q6.27084,1.56771,14.60911,3.111,2.069-3.63241,7.29651-10.9395h-51.08056l-2.60068-3.64853a16.54073,16.54073,0,0,0,4.15832.5348h49.52292c0-.35524.6899-1.22137,2.0686-2.6223a8.81735,8.81735,0,0,0,2.6223-2.60284Zm24.48455-17.1881a8.71663,8.71663,0,0,0,3.13764,2.60062q9.3729,6.77117,11.98191,8.33888a2.9629,2.9629,0,0,1-1.04241,3.13486q-11.97872-1.06238-24.48461,8.33888c-1.40093.33689-1.91127-.17623-1.57988-1.57716q1.06645-3.10206,5.22786-11.98686h-85.99438c2.42661,8.69689,1.20524,14.76648-3.66466,18.25769q-7.27233,5.70379-11.98686.51034-4.67477-6.76784,1.57939-12.51943a10.67406,10.67406,0,0,0,2.60061-2.06582,6.21017,6.21017,0,0,1,1.04236-1.58216c2.09584-3.11374,3.11652-7.62507,3.11652-13.54289a2.12418,2.12418,0,0,1,2.08972-1.04514,73.2039,73.2039,0,0,0,4.18056,8.87367h62.02011q2.06887-5.73714,6.75949-17.72011,4.16944-12.00714,6.78068-18.25769a4.38185,4.38185,0,0,1,3.64792-.51256,70.41416,70.41416,0,0,0,9.89714,5.20346c4.18055,1.73448,6.78062,2.77962,7.82853,3.13541q1.02652,1.034,0,2.60285a55.95393,55.95393,0,0,0-7.82853,3.64575,270.67542,270.67542,0,0,0-23.97422,21.90289h21.3686a28.06621,28.06621,0,0,1,5.22792-5.73548Q1714.3937,170.396,1716.46229,170.93383Zm-172.185-23.45837q16.17249,1.02985,23.99044,9.38124,5.20345,8.33888-.53207,14.07713-7.80936,5.20347-11.98686-3.64575a16.43327,16.43327,0,0,1-1.04236-3.13486c-.33684-1.382-.6899-2.6034-1.04792-3.64854q-1.56354-6.77117-9.89157-10.94227C1543.072,148.87584,1543.2511,148.162,1544.27729,147.47546Zm50.03325,85.98883a25.57989,25.57989,0,0,0-17.19365,12.51943c-.353.68935-1.04236.86558-2.09027.51034q-31.78364-20.843-36.99793-66.711h-3.11647v63.06247q.50526,7.84272.51585,15.6354c-.68934,2.44885-3.82754,4.18055-9.38679,5.22569-3.82755.33356-5.73826-.86891-5.73826-3.64853V227.72881q.537-20.85137.532-31.268-22.41073,35.95723-53.67623,52.12354c-.711,0-1.04787-.51034-1.04787-1.55548q29.18606-24.5163,43.25259-67.24581h-39.60411l-2.60061-3.64576a42.70259,42.70259,0,0,0,4.69089.532h49.50124V138.08867c0-.33411.532-.68935,1.5527-1.04514a2.15856,2.15856,0,0,0,1.57943.5348c5.89609,1.04236,10.766,2.09028,14.588,3.11318,1.04736.353,1.04736,1.04514,0,2.0875-.353.69213-1.55826,1.561-3.643,2.6034h-.51585v31.2869h33.35551a44.94243,44.94243,0,0,0,4.15882-5.22514,74.34151,74.34151,0,0,1,5.73826-6.75893h1.55826a117.49759,117.49759,0,0,1,15.11949,11.98407c1.04236,1.73449,1.04236,2.77963,0,3.11374h-55.26117q14.07936,38.56314,54.21882,52.12576A2.12651,2.12651,0,0,0,1594.31054,233.46429ZM1377.3152,195.95046q-2.60591,2.068-17.20977,10.94172v39.09154a62.16235,62.16235,0,0,1,.532,7.80408q-2.10141,6.77117-16.16742,8.34165c-.68934,0-1.37925-.51312-2.09028-1.55826-2.06859-5.91726-5.55925-9.56024-10.40747-10.94227-1.04236-.68657-1.04236-1.04458,0-1.04458q12.50832,2.068,15.63539,0V214.18647a127.072,127.072,0,0,0-15.12505,9.89158c-1.37313.358-2.08968.179-2.08968-.51034a79.34846,79.34846,0,0,1-1.55274-8.84922c-.35857-3.49121-.5159-5.736-.5159-6.784-.711-1.04236-.353-1.73449,1.04792-2.08694q8.33888-1.57188,18.23545-3.13542v-31.268h-16.67775l-3.13764-3.64853a18.8981,18.8981,0,0,0,4.69034.5348h15.12505V146.42755l-.537-8.33888c-.33138,0,0-.17678,1.04731-.51034,6.96019,1.37869,11.98742,2.77963,15.12,4.15832v2.0875c-.6899.69213-1.22192,1.22415-1.55825,1.55826a6.61636,6.61636,0,0,0-1.57438,1.04514v21.90289h1.04236a61.99622,61.99622,0,0,1,6.78617-7.82576c.68379-.35579,1.22137-.35579,1.5527,0,4.86991,4.18056,8.002,7.291,9.3868,9.384a1.66788,1.66788,0,0,1-1.04792,1.55547h-17.72011v28.15149q8.33887-2.10056,17.20977-4.69034C1378.00455,195.59189,1378.00455,195.95046,1377.3152,195.95046Zm60.46241,65.66587a75.8746,75.8746,0,0,1-28.68685-17.72289q-19.78065,14.076-46.89506,16.67775a3.11485,3.11485,0,0,1-2.09027-.51311c0-.70825.532-1.04236,1.57438-1.04236a80.41251,80.41251,0,0,0,40.652-23.46115,97.27032,97.27032,0,0,1-17.20978-43.24986h-5.71657l-2.6223-3.65076c2.44273.33633,4.001.5159,4.69034.5159h18.768V168.33044h-9.3868a83.25727,83.25727,0,0,1-8.84921.51034l-2.60006-3.6452a18.67181,18.67181,0,0,0,4.66866.51256h16.16741V138.08867q13.54233.53286,17.72567,3.13486,1.56354,1.03485,0,2.60062a10.04411,10.04411,0,0,1-3.64854,2.6034v19.28059h10.9395a54.59287,54.59287,0,0,1,9.38123-11.98686,2.31627,2.31627,0,0,1,2.09584,0q9.3729,6.77116,15.62983,11.98686c.68935,1.40093.51034,2.26706-.532,2.6223h-37.51438v20.83941h8.33888s.51034-.68991,1.5527-2.09028c1.40093-1.37925,2.44885-2.42662,3.13819-3.11374a3.25276,3.25276,0,0,1,2.60062,0c4.51689,2.42161,8.84927,5.02445,13.03478,7.80408a2.18961,2.18961,0,0,1,0,2.0875,16.0331,16.0331,0,0,1-3.64854,1.04791q-7.304,26.04648-20.85775,40.64925a63.57428,63.57428,0,0,0,35.44578,10.93949c1.04236.35524,1.04236.68935,0,1.04792q-7.81019,2.10056-14.07769,13.02921A1.43888,1.43888,0,0,1,1437.77761,261.61633Zm-51.08118-69.31162a72.89585,72.89585,0,0,0,21.884,35.4241,87.48745,87.48745,0,0,0,14.07714-35.4241h-35.96113Zm-88.28586-4.18278c.35853.358.86887.86835,1.55822,1.57994q9.91075,5.20345,12.51943,7.29373v2.06582c-1.04236.71381-2.60062,1.91627-4.6909,3.65076q-3.1354,62.04041-35.95612,63.06247c-1.73726-.33355-2.60557-.68934-2.60557-1.0229q-1.56361-12.50832-16.1619-16.67775c-1.37925-1.40093-1.04792-2.44885,1.04236-3.13542q21.8812,5.73716,28.14871-2.60062,7.28067-8.343,10.40747-45.87716h-66.17343q-2.60583,4.70229-3.13815,5.73826h-2.08977a36.62019,36.62019,0,0,1-6.24911-3.648,49.33792,49.33792,0,0,1-5.73274-4.17778,1.88739,1.88739,0,0,1,0-2.60339l4.69034-3.648q3.665-42.19555,4.69089-50.03326c0-1.04514.353-1.55548,1.04792-1.55548,2.42106.68657,6.78062,1.91072,13.02922,3.64576a6.47082,6.47082,0,0,0,3.64853,1.04458v2.09028l-4.16443,3.64854q-1.05821,3.63575-1.57438,16.143h58.37213a68.15409,68.15409,0,0,1,9.91882-12.49775h1.5583q11.466,7.81018,15.62979,11.98741c.68935,1.73449.51034,2.77962-.51034,3.11318h-84.9687q-1.034,8.87256-3.648,24.50406v3.13487h64.62073a23.3425,23.3425,0,0,1,4.6909-5.22514C1296.67882,187.78782,1297.36817,187.78782,1298.41057,188.12193Zm-101.61925,34.40342h62.531a21.9631,21.9631,0,0,0,2.09027-3.13542c3.13209-3.80308,5.37969-6.25138,6.78062-7.29373,0-.3369.51034-.3369,1.55826,0q10.93644,6.26583,15.11949,10.96117c.33133,1.37869,0,2.2476-1.04787,2.60006h-89.12151l-2.60613-3.6452A20.09509,20.09509,0,0,0,1196.79132,222.52535Zm-89.84361-59.42c0-1.04514-.179-3.469-.5348-7.291a28.11855,28.11855,0,0,0-7.80686-16.14573,1.06443,1.06443,0,0,1-.532-1.57994c0-.33411.532-.51034,1.57994-.51034q19.81317,7.30485,23.43669,20.83607c1.04514,5.55925-1.02346,9.38124-6.2486,11.4743C1111.63861,171.26517,1108.3264,169.02256,1106.94771,163.1053Zm-36.49092-21.88177q22.41072,8.33888,23.96926,20.83663,1.57105,8.33887-5.71435,11.98463c-5.55925,1.75895-9.0499-.15232-10.4286-5.71435-.6899-1.40038-.86891-4.001-.53258-7.82576q-1.034-8.33888-8.3411-17.19087a1.03779,1.03779,0,0,1-.51033-1.57716A2.18349,2.18349,0,0,1,1070.45679,141.22353Zm66.19844,46.8984q7.80519,4.70229,15.63262,10.42915a8.23145,8.23145,0,0,1-1.04514,3.13764q-11.47429-.537-25.527,6.75894a.645.645,0,0,0,0,1.04514v1.04514l-3.13542,2.60061v9.3868h29.70753a21.4825,21.4825,0,0,0,2.08972-3.13542,51.488,51.488,0,0,1,6.76172-7.29373c.35579-.3369.86335-.3369,1.57993,0q10.93728,6.26583,15.09782,10.96117c.353,1.37869,0,2.2476-1.02568,2.60006h-54.211l.51034,22.41657q1.06654,14.57635-17.18809,16.67775c-1.73449,0-2.77962-.532-3.13542-1.57994-2.068-7.64675-7.62729-12.31819-16.67775-14.07491q-2.068-1.034.53258-2.60284,21.34752,3.13542,20.83607-5.20124V225.65743h-54.19158l-2.60061-3.6452a17.732,17.732,0,0,0,4.15554.51312h52.63665V211.58308l-1.04514-6.2486c0-.35579.35579-.71381,1.04514-1.04514q6.27084,1.56771,14.60915,3.111,2.06887-3.63241,7.29374-10.9395H1078.2831l-2.60062-3.64853a16.54073,16.54073,0,0,0,4.15832.5348h49.52014c0-.35524.6899-1.22137,2.0686-2.6223a8.87119,8.87119,0,0,0,2.62508-2.60284Zm24.48406-17.1881a8.71732,8.71732,0,0,0,3.13263,2.60062c6.2486,4.51411,10.25571,7.29652,11.98742,8.33888a2.96287,2.96287,0,0,1-1.04236,3.13486q-11.9788-1.06238-24.48461,8.33888c-1.40093.33689-1.914-.17623-1.57994-1.57716q1.06654-3.10206,5.22514-11.98686H1068.386c2.42383,8.69689,1.20246,14.76648-3.66744,18.25769q-7.27233,5.70379-11.98463.51034-4.67394-6.76784,1.57716-12.51943a10.72928,10.72928,0,0,0,2.60339-2.06582,6.06611,6.06611,0,0,1,1.04236-1.58216c2.09306-3.11374,3.116-7.62507,3.116-13.54289a2.12327,2.12327,0,0,1,2.0875-1.04514,73.182,73.182,0,0,0,4.18334,8.87367h62.01733q2.06887-5.73714,6.76172-17.72011,4.16943-12.00714,6.78117-18.25769a4.38044,4.38044,0,0,1,3.648-.51256,70.49062,70.49062,0,0,0,9.89436,5.20346q6.27083,2.60172,7.82575,3.13541,1.034,1.034,0,2.60285a56.21235,56.21235,0,0,0-7.82575,3.64575,270.60741,270.60741,0,0,0-23.97149,21.90289h21.36809a27.989,27.989,0,0,1,5.22847-5.73548Q1159.07124,170.396,1161.13929,170.93383ZM1038.475,211.04828l-24.50628,5.73826.53479,44.295q-2.60589,3.13542-11.47429,3.67022-5.20762,0-5.20346-3.67022l.51034-41.15958-32.82348,7.29374-7.291,2.09028-4.69367-2.60062,5.71435-1.04792,39.09376-8.87089.5348-45.34237v-33.3555q13.00531,1.034,17.72011,3.13486,1.53519,1.03485,0,2.60062a7.60742,7.60742,0,0,1-3.64575,2.6034v25.01662l.51312,42.22641,5.20345-1.57438q1.06322-1.0382,4.6909-10.40748s.711-.179,2.09028-.5348a77.359,77.359,0,0,1,14.07713,7.29374A5.023,5.023,0,0,1,1038.475,211.04828Zm-65.66865-23.43669q15.64791,2.60172,19.28115,12.49719,1.034,8.3347-5.73881,10.9395c-4.86935,1.04792-7.80408-1.02346-8.84922-6.2486a9.64807,9.64807,0,0,1-.53424-3.111c.71381-4.87268-1.04514-9.05268-5.204-12.51887C971.406,188.47994,971.76119,187.94514,972.80632,187.61159Zm-.532-33.35829q16.67777,1.57188,21.9029,11.98686,1.03485,6.77533-5.22514,10.42915c-4.15832,1.73449-7.29374.51312-9.36234-3.6452a7.40647,7.40647,0,0,1-1.04514-3.13541,23.5261,23.5261,0,0,0-6.78339-14.07436c-.68657,0-1.04514-.18234-1.04514-.51312A5.77753,5.77753,0,0,1,972.2743,154.2533Zm-24.4846,43.78744q17.71177,2.60173,22.416,11.98408,2.06888,7.806-3.648,11.45261c-4.18056,1.73449-7.47052.35524-9.916-4.1561a12.63072,12.63072,0,0,1-1.55548-3.13486q-2.10473-8.343-7.29651-13.03255l1.04792,59.41727q-1.57188,2.60173-9.384,4.18056c-3.82476.33356-5.73826-.532-5.73826-2.6223l1.04514-48.45887q-7.806,10.94477-22.92691,24.4846c-1.04513-.33411-1.40037-.86613-1.04513-1.55548q15.11086-20.84718,23.972-50.03325H921.72793a78.25151,78.25151,0,0,1-8.84922.51312l-2.62229-3.64854a19.02223,19.02223,0,0,0,4.69089.5348H935.273V157.90128a196.2581,196.2581,0,0,1-24.4846,1.55548,2.24207,2.24207,0,0,1-1.57939-.50756c0-.358.35524-.71381,1.04737-1.04792q18.24546-3.66827,40.647-15.12227c.358-.33078,1.22415-.33078,2.62453,0q6.2383,4.16943,14.588,10.43193a1.01179,1.01179,0,0,1-.5348,1.55548,120.37254,120.37254,0,0,1-19.27836,2.09028,1.03627,1.03627,0,0,0,1.57993.51034c.68657.71659.68657,1.58216,0,2.62452-.7138,1.02346-1.40093,1.55826-2.093,1.55826v22.416h4.15887a43.20227,43.20227,0,0,1,7.82854-9.38679c.35523-.35524.86835-.35524,1.55492,0a54.9536,54.9536,0,0,1,11.98741,9.89713c.3558,1.04514.179,1.73449-.51312,2.09028H947.7897Zm-98.69283,5.20346q2.068,45.33014-34.40064,59.41727a2.1259,2.1259,0,0,1-1.57716-.532,1.04144,1.04144,0,0,1,.532-1.55826q22.91523-13.54233,21.88121-56.81665V157.90128l-1.55492-10.93893a3.96826,3.96826,0,0,1,1.55492-.5348,112.92347,112.92347,0,0,1,13.56457,5.22514h10.94172a12.835,12.835,0,0,0,1.55826-2.62453c1.73171-2.77962,3.13264-4.15609,4.17778-4.15609a41.95912,41.95912,0,0,1,15.10059,8.33887,23.15278,23.15278,0,0,1-2.09028,3.13542c-1.37869,1.3787-1.89181,2.24483-1.55548,2.60284V247.542c-.33633.68657.17679,1.04236,1.55548,1.04236h4.18056q4.16943,2.068,11.98407-23.45893a2.35145,2.35145,0,0,1,2.6034.532q-3.63574,19.28366.5348,22.92691c0,.358.33356.86835,1.04236,1.5577a6.57868,6.57868,0,0,1,1.55826,3.64576q0,7.30485-11.47429,8.34165h-18.768q-6.77116-1.03818-7.29373-8.34165V154.76642H849.09687Zm-40.13612-8.33888q13.00865,2.60174,20.32295,9.384,3.63576,6.23748-.532,10.93949-5.20345,4.16945-9.89713-1.04236a11.59431,11.59431,0,0,1-2.08972-3.64853,9.06084,9.06084,0,0,1-.51034-2.6034q-1.56771-4.70229-7.29374-10.42582v62.01733q-6.772,8.87258-13.56457,2.6034l.532-46.38805a172.82173,172.82173,0,0,1-21.37087,20.8583c-1.40093.3558-1.91127,0-1.5527-1.04513q14.57218-19.81317,21.87843-54.7236H784.45391c-.68935.35246-3.6452.532-8.84866.532l-2.60062-3.66744a16.7897,16.7897,0,0,0,4.15554.532h19.28115v-31.8l-.51312-8.33888s.35579-.17678,1.04792-.51034q9.90658,1.56354,15.09781,4.15832a2.17458,2.17458,0,0,1,0,2.0875,3.23471,3.23471,0,0,1-2.0686,1.55826c-.35523.358-.711.711-1.04458,1.04514v31.8h2.60006a91.31045,91.31045,0,0,1,7.82854-9.38679h2.0686q8.33888,6.275,11.47429,9.89713c.35524,1.40038.17623,2.09306-.51034,2.09306H808.96075ZM673.777,155.81434a18.81731,18.81731,0,0,1,7.80407,6.78062q2.10057,6.23748-3.11373,9.384c-4.18,2.06582-7.11473,1.19969-8.8709-2.62229-.68935-.69213-.86835-2.0686-.51312-4.1611.68935-3.82477,0-6.96019-2.09028-9.38124h-8.84921a162.96832,162.96832,0,0,1-22.416,19.80983c-1.40038.3369-1.91072,0-1.55548-1.04513q10.40358-12.50832,20.83663-37.00071c-.33411-.35857.17622-.5348,1.55547-.5348a.47329.47329,0,0,0,.5348.5348c7.29374,1.37869,12.4972,2.95863,15.62984,4.69312v2.0686a14.63419,14.63419,0,0,1-3.13264,1.04236,6.9283,6.9283,0,0,0-2.6034,1.04514,40.10317,40.10317,0,0,1-6.24581,6.78339h17.72011s.179-.35857.51312-1.04514c3.13541-4.15832,5.55647-6.93794,7.29373-8.34165h1.57716c5.55925,3.82476,9.54134,7.12029,11.98686,9.89713.33411,1.40038.17678,2.09306-.53425,2.09306Zm18.76747,67.243-4.18,2.60006a23.27081,23.27081,0,0,1-.51312,4.15888c-.35579,2.0925-.35579,3.469,0,4.18278h19.28115l.51034-14.60916c0-.33411.53424-.68934,1.57938-1.02624a60.7423,60.7423,0,0,1,14.588,3.11374,3.27968,3.27968,0,0,1,0,2.60062l-3.64575,2.0925.51034,7.82854h17.20977c3.82476-4.86991,6.60439-8.16209,8.33887-9.921h1.55826c6.2486,3.827,10.76271,7.3182,13.54234,10.43138.711,1.40371.35579,2.09027-1.02346,2.09027H720.67485l.532,23.97149c-.3558,2.09028-3.13542,3.469-8.33888,4.18056-4.51133.33356-6.78062-.532-6.78062-2.6223l1.04514-25.52975H686.80622q-4.16943,25.55033-47.42986,28.15205c-1.73448-.35579-1.914-1.22192-.51312-2.6223q27.61836-4.16943,34.379-25.52975H646.6701a65.62609,65.62609,0,0,1-8.34166.51312l-3.111-3.64853q.50117.53368,4.66921.5348H673.777a40.71556,40.71556,0,0,0,.51034-6.7834v-8.852c0-.711.53424-1.22136,1.57938-1.57715a114.95958,114.95958,0,0,1,16.67775,3.64575Zm34.40065-67.243a11.11924,11.11924,0,0,1,6.24859,6.24582q1.56771,5.74131-3.13486,8.33888a44.25116,44.25116,0,0,1,9.384,6.78339v2.0875a8.136,8.136,0,0,1-2.09028,1.561,8.60633,8.60633,0,0,1-2.0686.532l1.55548,35.95834q-9.90658,6.23415-13.564,0V215.7414H668.573v2.62229c-.35523,2.77963-2.77962,4.51412-7.31542,5.204-4.51411.358-6.76171-.86613-6.76171-3.64576l1.55826-38.559c-.3558-1.75895-.68991-3.494-1.04514-5.2257a47.08222,47.08222,0,0,1-.51312-6.24859l1.55826.51034c3.82476,1.73448,7.82575,3.49343,11.98407,5.22513h53.16868s.179-.179.51312-.532a53.37624,53.37624,0,0,1,3.648-4.15832,3.69059,3.69059,0,0,1-3.648-2.60339c-.33412-.35524-.33412-1.22137,0-2.6223a14.68908,14.68908,0,0,0-2.6034-9.8938H712.336a144.46753,144.46753,0,0,1-17.72289,15.62983c-.33411.35524-.68935.68935-1.02346,1.04792-1.04514-.35857-1.40037-.69268-1.04514-1.04792a91.06356,91.06356,0,0,0,15.09837-32.82348c0-.353.71381-.7088,2.08972-1.04236A69.39038,69.39038,0,0,1,725.368,142.779v2.09306l-5.73826,2.09028c-1.73449,2.06581-3.469,4.15832-5.20346,6.24859h25.01663a91.56946,91.56946,0,0,1,7.82575-9.38679h2.0686q8.33888,6.275,11.47652,9.89713c.35579,1.40038.17623,2.09306-.51312,2.09306ZM668.573,213.13855h54.70247V203.2442H668.573Zm0-12.49775h54.70247v-9.916H668.573Zm0-12.51887h54.70247v-9.89436H668.573ZM507.83782,144.87207q17.21143-.53369,21.90345,8.84921,2.60172,7.30487-2.6223,12.51888-5.74131,3.63658-10.94227-1.55492a8.54038,8.54038,0,0,1-2.08973-4.69368,18.31354,18.31354,0,0,0-7.29429-13.02921C506.10333,145.91721,506.45913,145.22786,507.83782,144.87207Zm20.32629,91.19283q19.81317-13.54233,24.50351-17.19087c1.04514,0,1.55826.69213,1.55826,2.09306q-18.74664,21.88122-29.71031,37.51383h-2.08972A71.542,71.542,0,0,1,514.087,247.542q-1.03485-1.039,0-3.13542c1.04459-2.42661,1.75617-6.42816,2.08973-11.98964V186.56645H497.40922l-2.0686-3.13542c.68935.35579,2.6034.5348,5.7138.5348h12.0091c2.42383-3.82754,4.33788-5.73826,5.71657-5.73826a59.72989,59.72989,0,0,1,14.07436,7.29374,12.469,12.469,0,0,1-3.11318,3.13264c-1.04514,1.38147-1.57716,2.07082-1.57716,2.07082Zm55.77154,21.9029q-1.03822,4.1736-9.38682,5.73881c-4.15832.33356-6.2486-1.04514-6.2486-4.18056l1.04514-66.179H548.48706c-.68935.33689-3.6452.51034-8.84866.51034l-2.6034-3.64521a16.53329,16.53329,0,0,0,4.15832.51257h28.15205l.51312-29.17495V147.47546l-.51312-7.80685s.33411-.17957,1.04514-.532a58.28517,58.28517,0,0,1,16.67775,4.17722c.33356.33411.33356,1.02624,0,2.0686a3.39422,3.39422,0,0,1-1.57994,1.57994,4.08962,4.08962,0,0,1-1.55267.51311v43.24931h12.51663a122.57637,122.57637,0,0,1,9.36233-11.98686,2.30353,2.30353,0,0,1,2.08972,0q9.37712,6.77116,15.63542,11.98686c.70878,1.40093.532,2.26706-.51259,2.6223H583.93565Z" transform="translate(-28 -27.83705)" style="fill: #20408e"/>
  <path d="M1767.21214,137.04353q18.24129,2.60173,20.34741,14.07714c0,5.22569-2.77962,8.33609-8.33888,9.384-5.55925,0-8.18154-2.77962-7.82853-8.33888.353-5.91726-1.22137-10.25237-4.69034-13.02921-.35857-1.04792-.17957-1.73727.51034-2.09306m-7.80686,33.35551q16.14824,5.24014,17.1931,15.63261,0,6.80785-7.29652,8.34165-6.767,0-6.75894-6.76171c-.358-6.2486-1.75894-11.4743-4.18-15.63262C1758.00435,170.93383,1758.36292,170.399,1759.40528,170.399Zm85.47848,17.21255q0-4.16944,3.11652-18.25491c1.04236-5.562,1.73171-9.20779,2.09028-10.94228h-15.12505v20.85553l1.04736,81.30126c-.33078,2.09028-3.29,3.29-8.84922,3.64854-4.18,0-6.24859-1.2247-6.24859-3.64854l1.55825-81.30126V149.02816a68.05729,68.05729,0,0,1,12.4922,5.22514v1.561h14.60915a20.22911,20.22911,0,0,1,3.116-7.80686h2.60062c4.53857,2.77963,9.20779,5.7138,14.07713,8.84922v2.0925a9.30854,9.30854,0,0,1-4.15832,1.04236,143.30575,143.30575,0,0,0-16.16741,27.62q25.55366,15.11,21.37365,40.64924-2.068,13.54233-15.63539,16.67775c-1.40038-.35579-2.09028-.86613-2.09028-1.55826q-1.56354-5.236-13.02922-10.42915-1.034-1.02985,0-2.60006,17.20728,2.60172,18.768-14.60971Q1857.89157,201.69873,1844.88376,187.61159Zm-75.04988,67.22135c-.35246,2.44829-2.62174,4.18278-6.78062,5.22514q-7.30485,1.03818-7.29651-2.09028l1.55825-35.44245V208.44766c4.86991,2.09028,9.02823,4.00155,12.51888,5.73881v1.55493h20.83663a14.11035,14.11035,0,0,1,4.69034-5.20346,4.55178,4.55178,0,0,1,2.09583-.51312c3.46342,1.02346,7.291,3.47175,11.44984,7.29651a1.65259,1.65259,0,0,1,.532,2.0686,6.22049,6.22049,0,0,1-3.64854,3.13542l1.55826,28.14871c-.68935,2.77963-3.64854,4.69368-8.84922,5.73881-4.51689,0-6.78061-1.40093-6.78061-4.18055V247.542h-21.88455Zm0-36.46925v26.57489h21.88455V218.36369Zm34.91376-52.65555a5.82889,5.82889,0,0,0,1.55826,1.04514,4.6287,4.6287,0,0,0,2.09028.5348v2.60062a5.76574,5.76574,0,0,0-1.55826,1.04513c-1.04792.68935-1.91127.86558-2.60062.51034q-8.87589,17.21061-15.12505,27.61725h9.38679a62.13169,62.13169,0,0,1,8.33888-9.35955h1.55826a68.45992,68.45992,0,0,1,11.471,9.89379c.6899,1.382.51034,2.09306-.532,2.09306h-63.06248c-.68934.33133-3.64853.51034-8.84921.51034l-2.60618-3.648a16.53438,16.53438,0,0,0,4.15888.51034h34.40342a210.3441,210.3441,0,0,0,6.78062-33.35328H1757.315a66.12789,66.12789,0,0,1-8.33887.532l-3.111-3.6452a19.8989,19.8989,0,0,0,4.66921.51034h43.27377V162.595q6.23831-8.343,8.84921-10.42916c0-.35579.532-.35579,1.57994,0,8.67021,5.20124,13.71912,9.02823,15.09782,11.47152.353,1.38147,0,2.07082-1.04737,2.07082Z" transform="translate(-28 -27.83705)" style="fill: #1d2087"/>
  <path d="M824.66119,300.58779H811.00433v11.83287h12.6523v4.02267h-12.6523v15.45906h-4.56859V296.52732h18.22545v4.06047M770.6703,314.26911q0,6.41676,3.28163,10.28795a10.67471,10.67471,0,0,0,8.55346,3.87591,11.18257,11.18257,0,0,0,8.89258-3.71313q3.22881-3.71731,3.22714-10.38013,0-6.85305-3.15654-10.57314a10.76419,10.76419,0,0,0-8.6674-3.72425,10.98192,10.98192,0,0,0-8.77086,3.92772Q770.67564,307.89932,770.6703,314.26911Zm-4.79374.36625q0-8.563,4.63867-13.63452,4.62969-5.06586,12.5572-5.06558a15.2682,15.2682,0,0,1,11.87067,4.94606q4.503,4.9633,4.50855,12.91247,0,8.60406-4.61751,13.65686-4.61724,5.03669-12.32875,5.04335-7.545,0-12.08526-4.95663Q765.87211,322.58659,765.87656,314.63536Zm-33.82248-18.108-11.64775,22.35652v13.01855h-4.59027v-12.9018l-11.34921-22.47327h5.2307l7.64675,15.66753c.01612.01667.29575.76283.84945,2.25883h.06227a13.222,13.222,0,0,1,.93673-2.23705l7.997-15.68931Zm-31.78391,4.06047H690.06339v31.3146h-4.58972v-31.3146H675.3075v-4.06047h24.96267ZM674.105,331.90239H655.44315V296.52732H660.009v31.32749h14.096Zm-29.59575-14.41392q0,15.01248-13.60741,15.00553-13.03783,0-13.04311-14.47629V296.52732h4.568V317.8059q0,10.63124,8.912,10.62707,8.60322,0,8.60461-10.28239V296.52732h4.56584Zm-35.53254,12.948a20.84774,20.84774,0,0,1-9.791,2.05748q-7.61005,0-12.15308-4.82654-4.548-4.83656-4.54635-12.78517,0-8.53416,5.114-13.743a17.4278,17.4278,0,0,1,12.99419-5.204,21.19115,21.19115,0,0,1,8.38224,1.43095v4.78262a16.83931,16.83931,0,0,0-8.33331-2.10651,12.67793,12.67793,0,0,0-9.63638,3.93595q-3.73,3.93778-3.72417,10.63273,0,6.34755,3.47731,10.08726a11.82567,11.82567,0,0,0,9.08771,3.73471,17.13986,17.13986,0,0,0,9.12884-2.38047ZM568.01,318.22107,562.6676,303.5113a15.98255,15.98255,0,0,1-.54536-2.46431h-.11675a13.99969,13.99969,0,0,1-.57038,2.46431l-5.29852,14.70977Zm10.07058,13.68132h-5.04613L569.42654,322.22H554.69508l-3.40115,9.68244h-5.05169l13.47784-35.37507h4.88825Zm-33.36106-31.3146H531.06048v11.83287H543.715v4.02267H531.06048v15.45906h-4.56581V296.52732h18.22489Z" transform="translate(-28 -27.83705)" style="fill: #20408e"/>
  <path d="M889.79782,330.24362a19.07486,19.07486,0,0,1-9.32731,2.05747,14.79455,14.79455,0,0,1-11.5827-4.826q-4.332-4.83738-4.32673-12.78239,0-8.539,4.8699-13.74358a16.2089,16.2089,0,0,1,12.38045-5.20623,19.34872,19.34872,0,0,1,7.98639,1.43039v4.78262a15.45307,15.45307,0,0,0-7.94028-2.1064,11.8053,11.8053,0,0,0-9.18,3.93595q-3.55491,3.94163-3.548,10.63263,0,6.34838,3.31165,10.08726a11.01205,11.01205,0,0,0,8.66187,3.73526,15.738,15.738,0,0,0,8.69467-2.38114v4.38414" transform="translate(-28 -27.83705)" style="fill: #20408e"/>
  <path d="M899.99574,314.0762q0,6.41678,2.918,10.28785a9.10282,9.10282,0,0,0,7.61172,3.87657,9.47379,9.47379,0,0,0,7.918-3.71358q2.87025-3.71748,2.87195-10.38023,0-6.85707-2.80968-10.57259a9.14024,9.14024,0,0,0-7.71458-3.7247,9.34078,9.34078,0,0,0-7.80407,3.93095q-2.98866,3.92511-2.9914,10.29573m-4.2695.36636q0-8.56236,4.12826-13.63462a13.66153,13.66153,0,0,1,11.17854-5.065,12.91633,12.91633,0,0,1,10.5648,4.94828q4.01018,4.95913,4.01211,12.91015,0,8.60754-4.10717,13.65352a13.43967,13.43967,0,0,1-10.9773,5.04623,13.18116,13.18116,0,0,1-10.75211-4.95662Q895.72229,322.39368,895.72624,314.44256Z" transform="translate(-28 -27.83705)" style="fill: #20408e"/>
  <path d="M960.61822,331.70959v-23.434q0-2.89926.29075-6.96018h-.09228a24.87125,24.87125,0,0,1-.89059,3.56136l-9.8699,26.83284H947.912L938.061,305.078a25.74138,25.74138,0,0,1-.88781-3.76261h-.119c.13008,1.64509.19791,4.02834.19791,7.16376v23.23044h-3.69468V296.3343h5.23629l8.83028,24.24845a36.18844,36.18844,0,0,1,1.33033,4.34344h.13009c.67322-2.17433,1.143-3.65632,1.41427-4.42738l8.98486-24.16451h4.97831v35.37529h-3.84367" transform="translate(-28 -27.83705)" style="fill: #20408e"/>
  <path d="M980.2307,300.35708v14.10716h4.51412c2.97475,0,5.239-.62153,6.78061-1.88626a6.54461,6.54461,0,0,0,2.321-5.39358q0-6.8287-8.63463-6.82732H980.2307m0,18.13039v13.22212h-4.881V296.3343h10.736c4.07993,0,7.25593.92017,9.50354,2.75805a9.636,9.636,0,0,1,3.37946,7.90748,10.37746,10.37746,0,0,1-3.9554,8.43894,14.37022,14.37022,0,0,1-9.87764,3.0487Z" transform="translate(-28 -27.83705)" style="fill: #20408e"/>
  <path d="M1031.91121,317.29556q0,15.01248-12.967,15.00553-12.42241,0-12.42659-14.47628V296.3343h4.35123V317.613q0,10.63206,8.49064,10.62762,8.20045,0,8.20045-10.28239V296.3343h4.35127v20.96126" transform="translate(-28 -27.83705)" style="fill: #20408e"/>
  <polyline points="1037.536 272.558 1026.797 272.558 1026.797 303.873 1021.965 303.873 1021.965 272.558 1011.268 272.558 1011.268 268.497 1037.536 268.497 1037.536 272.558" style="fill: #20408e"/>
  <polyline points="1064.74 303.873 1043.898 303.873 1043.898 268.497 1063.866 268.497 1063.866 272.558 1048.904 272.558 1048.904 283.891 1062.767 283.891 1062.767 287.93 1048.904 287.93 1048.904 299.825 1064.74 299.825 1064.74 303.873" style="fill: #20408e"/>
  <path d="M1106.08714,300.33262v12.48664h5.4236a7.21517,7.21517,0,0,0,5.114-1.824,6.23641,6.23641,0,0,0,1.968-4.79375,5.41511,5.41511,0,0,0-1.79675-4.31842,7.72563,7.72563,0,0,0-5.21735-1.55048h-5.49143m21.39533,31.377h-5.42027l-5.9067-9.82375a13.66416,13.66416,0,0,0-3.2416-4.00388,5.79774,5.79774,0,0,0-3.51512-1.06116h-3.31164v14.88879h-4.59528V296.3343h10.84943q5.18762,0,8.13541,2.48676a8.64136,8.64136,0,0,1,2.94251,6.968q0,7.35321-7.91025,9.54123v.11675a7.32483,7.32483,0,0,1,2.54391,1.76183,25.97085,25.97085,0,0,1,2.76851,3.90593Z" transform="translate(-28 -27.83705)" style="fill: #20408e"/>
  <path d="M1165.2276,325.87349a12.50837,12.50837,0,0,0,4.3434,2.33155,16.1838,16.1838,0,0,0,5.15736.91217q7.44322,0,7.44824-5.29342a4.63932,4.63932,0,0,0-.80331-2.67066,7.65479,7.65479,0,0,0-2.19312-2.1064,57.481,57.481,0,0,0-5.22848-2.80687q-5.3177-2.64258-7.00855-4.91882a8.48891,8.48891,0,0,1-1.6939-5.1979,8.18167,8.18167,0,0,1,3.53957-6.98464,14.76309,14.76309,0,0,1,8.936-2.58116c3.51285,0,6.09678.42028,7.74177,1.278v4.97341a13.92612,13.92612,0,0,0-8.08371-2.21258,9.3455,9.3455,0,0,0-5.293,1.36257,4.30193,4.30193,0,0,0-2.04692,3.77307,4.61818,4.61818,0,0,0,1.42261,3.499,28.25851,28.25851,0,0,0,6.1402,3.673q5.20345,2.49165,7.27984,4.98109a8.49122,8.49122,0,0,1,2.08471,5.59705,8.3236,8.3236,0,0,1-3.38725,7.14742q-3.3714,2.496-9.38123,2.4862a24.23867,24.23867,0,0,1-4.89715-.58372,11.60349,11.60349,0,0,1-4.07711-1.44929v-5.209" transform="translate(-28 -27.83705)" style="fill: #20408e"/>
  <path d="M1218.68087,331.05805a18.7266,18.7266,0,0,1-9.23447,2.05747,14.58083,14.58083,0,0,1-11.47152-4.82376q-4.29112-4.84088-4.289-12.78516,0-8.534,4.82654-13.74025a15.97905,15.97905,0,0,1,12.26426-5.209,18.87217,18.87217,0,0,1,7.90415,1.43595v4.77706a15.20324,15.20324,0,0,0-7.86078-2.1064,11.64028,11.64028,0,0,0-9.09383,3.93595q-3.51733,3.9458-3.51233,10.63541,0,6.34755,3.27885,10.08726a10.85762,10.85762,0,0,0,8.57792,3.73248,15.46018,15.46018,0,0,0,8.61017-2.37547v4.37847" transform="translate(-28 -27.83705)" style="fill: #20408e"/>
  <polyline points="1199.155 304.407 1199.155 268.823 1203.862 268.823 1203.862 304.407 1199.155 304.407" style="fill: #20408e"/>
  <polyline points="1235.969 304.687 1214.406 304.687 1214.406 269.312 1235.068 269.312 1235.068 273.373 1219.585 273.373 1219.585 284.711 1233.928 284.711 1233.928 288.747 1219.585 288.747 1219.585 300.642 1235.969 300.642 1235.969 304.687" style="fill: #20408e"/>
  <path d="M1297.96583,332.524h-5.02727L1276.4015,305.0074a13.75748,13.75748,0,0,1-1.12357-2.30775h-.12508a45.64334,45.64334,0,0,1,.16844,4.95951V332.524h-4.20168V297.14884h5.32576l16.0857,27.04409c.75994,1.27585,1.21636,2.0875,1.36257,2.43773h.08172a42.57611,42.57611,0,0,1-.21181-5.1601V297.14884h4.20228V332.524" transform="translate(-28 -27.83705)" style="fill: #20408e"/>
  <path d="M1329.877,331.05805a18.80894,18.80894,0,0,1-9.25115,2.05747,14.60236,14.60236,0,0,1-11.48208-4.82376q-4.29195-4.84088-4.289-12.78516,0-8.534,4.82654-13.74025a16.00159,16.00159,0,0,1,12.27483-5.209,18.95442,18.95442,0,0,1,7.92082,1.43595v4.77706a15.25742,15.25742,0,0,0-7.8719-2.1064,11.65426,11.65426,0,0,0-9.10438,3.93595q-3.52652,3.9458-3.5179,10.63541,0,6.34755,3.28441,10.08726a10.86788,10.86788,0,0,0,8.58292,3.73248,15.52933,15.52933,0,0,0,8.62685-2.37547v4.37847" transform="translate(-28 -27.83705)" style="fill: #20408e"/>
  <polyline points="1332.247 304.687 1311.025 304.687 1311.025 269.312 1331.356 269.312 1331.356 273.373 1316.123 273.373 1316.123 284.711 1330.233 284.711 1330.233 288.747 1316.123 288.747 1316.123 300.642 1332.247 300.642 1332.247 304.687" style="fill: #20408e"/>
  <path d="M1416.73473,318.84548l-5.34188-14.71255a16.26724,16.26724,0,0,1-.54314-2.46175h-.11952a13.55625,13.55625,0,0,1-.56983,2.46175l-5.29852,14.71255h11.87289m10.07059,13.67854H1421.762l-3.61017-9.68255h-14.72868l-3.40393,9.68255h-5.04891l13.47456-35.37518h4.89153Z" transform="translate(-28 -27.83705)" style="fill: #20408e"/>
  <path d="M1457.76145,332.524H1452.772l-16.39534-27.51662a14.54334,14.54334,0,0,1-1.113-2.30775h-.11953a47.77442,47.77442,0,0,1,.16294,4.95951V332.524h-4.16388V297.14884H1436.42l15.9506,27.04409a26.99694,26.99694,0,0,1,1.35146,2.43773h.07616a45.43917,45.43917,0,0,1-.20625-5.1601V297.14884h4.16944V332.524" transform="translate(-28 -27.83705)" style="fill: #20408e"/>
  <path d="M1470.95355,301.20977v27.26934h4.71814q6.18918,0,9.66364-3.67244,3.469-3.68077,3.47453-10.30685,0-6.6169-3.56681-9.95106a13.20514,13.20514,0,0,0-9.38119-3.339h-4.90831m-4.19612,31.31425V297.14884h9.27783a17.08236,17.08236,0,0,1,12.27483,4.677q4.90242,4.69062,4.90219,12.5678,0,8.22129-4.90219,13.17375a16.94854,16.94854,0,0,1-12.61672,4.95663Z" transform="translate(-28 -27.83705)" style="fill: #20408e"/>
  <polyline points="1529.236 273.373 1518.482 273.373 1518.482 304.687 1513.644 304.687 1513.644 273.373 1502.933 273.373 1502.933 269.312 1529.236 269.312 1529.236 273.373" style="fill: #20408e"/>
  <polyline points="1556.755 304.687 1535.941 304.687 1535.941 269.312 1555.887 269.312 1555.887 273.373 1540.935 273.373 1540.935 284.711 1554.785 284.711 1554.785 288.747 1540.935 288.747 1540.935 300.642 1556.755 300.642 1556.755 304.687" style="fill: #20408e"/>
  <path d="M1616.11837,331.05805a18.79825,18.79825,0,0,1-9.25615,2.05747,14.61777,14.61777,0,0,1-11.49314-4.82376q-4.2996-4.84088-4.294-12.78516,0-8.534,4.83155-13.74025a16.02854,16.02854,0,0,1,12.29094-5.209,18.95442,18.95442,0,0,1,7.92082,1.43595v4.77706a15.25945,15.25945,0,0,0-7.8769-2.1064,11.66587,11.66587,0,0,0-9.10994,3.93595q-3.52652,3.9458-3.5234,10.63541,0,6.34755,3.28435,10.08726a10.89089,10.89089,0,0,0,8.594,3.73248,15.53445,15.53445,0,0,0,8.63185-2.37547v4.37847" transform="translate(-28 -27.83705)" style="fill: #20408e"/>
  <polyline points="1622.147 304.687 1617.853 304.687 1617.853 288.747 1601.007 288.747 1601.007 304.687 1596.707 304.687 1596.707 269.312 1601.007 269.312 1601.007 284.684 1617.853 284.684 1617.853 269.312 1622.147 269.312 1622.147 304.687" style="fill: #20408e"/>
  <path d="M1687.06442,332.524h-4.94607l-16.27026-27.51662a14.94485,14.94485,0,0,1-1.10795-2.30775h-.119a45.85875,45.85875,0,0,1,.16789,4.95951V332.524h-4.13664V297.14884h5.239l15.82552,27.04409a27.26052,27.26052,0,0,1,1.34089,2.43773h.08116a44.13949,44.13949,0,0,1-.20619-5.1601V297.14884h4.13158V332.524" transform="translate(-28 -27.83705)" style="fill: #20408e"/>
  <path d="M1698.79055,314.89063q0,6.42095,2.99143,10.29063a9.38282,9.38282,0,0,0,7.79635,3.87379,9.804,9.804,0,0,0,8.10539-3.708q2.93937-3.71763,2.94245-10.38579,0-6.84873-2.87747-10.57036a9.45494,9.45494,0,0,0-7.90469-3.72693,9.64833,9.64833,0,0,0-7.99143,3.93095q-3.062,3.92511-3.062,10.29573m-4.37013.36636q0-8.55819,4.22892-13.63184a14.12261,14.12261,0,0,1,11.44428-5.06781,13.34575,13.34575,0,0,1,10.82,4.95106q4.10432,4.955,4.1099,12.90747,0,8.60739-4.20724,13.6562a13.90233,13.90233,0,0,1-11.238,5.04345,13.62538,13.62538,0,0,1-11.01571-4.95662Q1694.4182,323.21227,1694.42042,315.257Z" transform="translate(-28 -27.83705)" style="fill: #20408e"/>
  <polyline points="1724.255 304.687 1705.596 304.687 1705.596 269.312 1710.162 269.312 1710.162 300.642 1724.255 300.642 1724.255 304.687" style="fill: #20408e"/>
  <path d="M1762.89593,314.89063q0,6.42095,2.91528,10.29063a9.08121,9.08121,0,0,0,7.6006,3.87379,9.472,9.472,0,0,0,7.90971-3.708q2.867-3.71763,2.8669-10.38579,0-6.84873-2.80681-10.57036a9.12432,9.12432,0,0,0-7.70406-3.72693,9.33647,9.33647,0,0,0-7.79574,3.93095q-2.98866,3.92511-2.98588,10.29573m-4.26728.36636q0-8.55819,4.12608-13.63184a13.63616,13.63616,0,0,1,11.16186-5.06781,12.88974,12.88974,0,0,1,10.55369,4.95106q4.00683,4.955,4.0071,12.90747,0,8.60739-4.09933,13.6562a13.42656,13.42656,0,0,1-10.96624,5.04345,13.14733,13.14733,0,0,1-10.73825-4.95662Q1758.62587,323.21227,1758.62865,315.257Z" transform="translate(-28 -27.83705)" style="fill: #20408e"/>
  <path d="M1822.316,330.10241a21.18609,21.18609,0,0,1-11.22191,3.01311,14.87834,14.87834,0,0,1-11.58548-4.84544q-4.38874-4.85739-4.39736-12.96417,0-8.19628,4.85878-13.48007a16.16775,16.16775,0,0,1,12.45445-5.2685,20.53591,20.53591,0,0,1,9.09877,1.82677v4.93216a16.59314,16.59314,0,0,0-9.48464-2.674,11.38891,11.38891,0,0,0-8.91982,3.95263q-3.51734,3.9533-3.51789,10.41248,0,6.64524,3.236,10.34743a11.03653,11.03653,0,0,0,8.73469,3.70024,12.51635,12.51635,0,0,0,6.43928-1.55826V317.931h-7.19367v-4.04213H1822.316v16.21355" transform="translate(-28 -27.83705)" style="fill: #20408e"/>
  <path d="M1853.66238,297.14884l-11.645,22.35642V332.524h-4.593V319.622L1826.078,297.14884h5.22842l7.649,15.67042c.01668.01389.29353.7654.84723,2.25872h.065a12.93855,12.93855,0,0,1,.934-2.23426l7.99642-15.69488h4.86435" transform="translate(-28 -27.83705)" style="fill: #20408e"/>
  <g style="clip-path: url(#f26fddf3-5273-4837-a5de-9a9f736cb16e)">
    <rect x="144.65725" y="88.09856" width="165.18091" height="100.74252" style="fill: url(#a5bf0298-5659-4c2e-bbd4-075810ed59fe)"/>
  </g>
  <g style="clip-path: url(#ec3e7979-2752-490f-af49-37abe800b4e2)">
    <rect x="144.65725" y="88.09578" width="60.27228" height="76.04877" style="fill: url(#ee63ef9f-1344-4110-9bb8-78ac200eb884)"/>
  </g>
  <g style="clip-path: url(#adfad77b-64cd-45ca-b311-962a175bf66a)">
    <rect x="104.41773" y="125.94649" width="93.98582" height="174.04457" style="fill: url(#b14b7891-13c9-4fda-98f3-7c1a9b4fadb2)"/>
  </g>
  <g style="clip-path: url(#e0964139-f3e1-47ab-bc78-9e2381b1fd54)">
    <rect x="104.41773" y="243.60292" width="93.98582" height="56.38814" style="fill: url(#a67bedeb-05a3-414c-bb3c-281e5fb78f2a)"/>
  </g>
  <polyline points="271.567 173.901 309.698 195.413 309.698 262.849 204.823 323.77 169.701 302.705 271.567 243.432 271.567 173.901" style="fill: #00a1e1;fill-rule: evenodd"/>
  <g style="clip-path: url(#ead7f68c-ae30-4c57-a2af-d56ca61a2d76)">
    <rect x="169.70056" y="243.43181" width="139.99694" height="80.33784" style="fill: url(#b83a2744-fb7f-4add-8a13-d9f04cd158c0)"/>
  </g>
  <polyline points="208.458 144.096 198.694 148.645 157.32 167.91 209.378 200.128 243.852 176.732 240.6 233.302 212.478 254.206 212.478 266.926 252.27 235.793 256.513 166.759 246.532 161.389 210.372 185.169 183.588 167.91 218.982 147.969 208.458 144.096" style="fill: #2372ba;fill-rule: evenodd"/>
  <polyline points="246.184 189.599 218.999 207.434 218.999 223.378 242.24 206.467 243.163 207.743 218.673 225.561 217.422 226.47 217.422 224.923 217.422 207.01 217.422 206.586 217.78 206.353 245.324 188.28 246.184 189.599" style="fill: #2372ba"/>
  <polyline points="242.445 221.051 219.125 238.114 219.125 250.97 217.548 250.97 217.548 237.715 217.548 237.322 217.871 237.083 241.515 219.783 242.445 221.051" style="fill: #2372ba"/>
  <polyline points="153.802 170.407 208.781 207.381 208.781 223.252 174.37 197.986 178.496 232.267 208.423 254.876 208.423 269.602 164.934 235.519 153.802 170.407" style="fill: #f5b500;fill-rule: evenodd"/>
  <polyline points="183.008 202.629 183.988 213.589 207.196 230.856 207.196 221.611 208.774 221.611 208.774 232.423 208.774 233.986 207.517 233.052 182.769 214.643 182.487 214.431 182.454 214.078 181.444 202.764 183.008 202.629" style="fill: #f5b500"/>
  <polyline points="184.743 238.737 183.288 227.838 183.044 226 184.534 227.108 208.112 244.603 208.432 244.839 208.432 245.233 208.432 255.349 206.855 255.349 206.855 245.626 185.091 229.475 186.299 238.533 184.743 238.737" style="fill: #f5b500"/>
  <path d="M403.03763,171.28407l1.70444,1.51712q-1.7061,2.19062-3.49343,4.10995l-1.82955-1.71291a44.06706,44.06706,0,0,0,3.61854-3.91416m3.01031-3.16277,2.33711,7.64686a29.558,29.558,0,0,0,2.81465-2.83633l1.6233,1.81565a36.6511,36.6511,0,0,1-3.0398,3.07038l-1.16466-1.287,2.41329,7.88858-2.04694.62419L404.001,168.74571Zm-8.27383,1.79186,2.99143,9.78539a62.97572,62.97572,0,0,0,6.65553,1.21636l-.47476,2.614q-2.72013-.62291-5.44528-1.42761l1.63164,5.33632-2.05248.62709-5.35578-17.52443Zm-3.26,15.37744-2.6551-8.68355-6.02067,1.84011,2.6551,8.68633Zm-1.29475-11.57436,4.036,13.206-12.4455,3.80809-.6899-2.261,2.25872-.68935-2.65454-8.6841-2.29152.69768-.69213-2.26094Zm6.06681,28.708q-5.261,1.60857-6.94906-2.38881a19.23494,19.23494,0,0,1-1.14854-4.19612c.70046-.32855,1.55548-.73338,2.56281-1.2247a25.24348,25.24348,0,0,0,.80609,3.9365q.82222,2.69512,4.44907,1.3191,3.233-1.12809,5.2635-6.72936,4.5522.778,10.01332,1.35479l-1.90793-6.24082L386.292,196.22731l-.70881-2.321,28.33942-8.66465L417.291,196.249l-2.50778.7655q-3.45313-.24448-9.14-1.25138Q403.59519,201.105,399.28622,202.42421Zm-15.18787-78.92857,2.18256.83055q-.73716,2.80519-1.79953,5.74938l-2.47275-.99344A49.60807,49.60807,0,0,0,384.09835,123.49564Zm5.50813,6.71557,2.1553,1.08294c-.72771,2.01968-1.526,3.97153-2.41049,5.87168l-2.35379-1.22192Q388.325,133.40306,389.60648,130.21121Zm1.32419,9.96774a48.09265,48.09265,0,0,0,6.352.67823L397.117,143.713c-2.082-.30409-4.2695-.646-6.57995-1.02623ZM378.35455,124.215l15.88278,24.45737-5.42084,3.5179-1.3737-2.11752,3.45841-2.24761L377.77137,127.605l-3.46119,2.24761-1.37647-2.11974ZM366.818,130.40912l8.14931,12.54945,1.50656-.97731,6.21857,3.24382-8.1871-12.60616,1.96019-1.27029,10.22513,15.7438-2.25261,1.4632-7.46772-3.80587-.59153.383,7.48609,11.52821-1.95408,1.27018-7.48662-11.5281-4.04993,2.63008q-3.16377,2.05219-5.23626-1.13965c-.76829-1.18134-1.65054-2.57338-2.64952-4.19167q.85971-.67128,2.07136-1.79953,1.17661,2.28068,2.42661,4.25616a1.49449,1.49449,0,0,0,2.37769.4374l3.64854-2.367-8.14875-12.54945Zm-7.89358-34.3545,2.39993-.323a64.75092,64.75092,0,0,1,1.52268,6.74281l-2.64954.36914Q359.6888,99.32958,358.92439,96.05462Zm-5.77606,25.041c-1.14576.17689-2.21814.39648-3.21158.64609a39.22464,39.22464,0,0,1,.47254-20.41245l-12.71178,15.14951-1.96017-1.645,12.75292-15.20122a45.10023,45.10023,0,0,1-20.57314,4.175c.06506-.83889.11118-1.854.1412-3.05147a46.33863,46.33863,0,0,0,20.51586-3.1621l-9.69587-8.13819,1.5171-1.81065,10.65153,8.93928,4.97553-5.92617,1.96019,1.645-4.97553,5.92838,10.70545,8.98253-1.51712,1.808-9.81264-8.23047Q349.75608,112.19673,353.14833,121.0956ZM315.89746,80.31638l-9.33231-4.15621a20.00313,20.00313,0,0,0,.909,9.7477A20.52106,20.52106,0,0,0,315.89746,80.31638Zm-25.32628-8.69189c1.65833.23905,3.26273.45586,4.821.65988l2.80409-6.29529-3.88981-1.72893.8984-2.01689,3.887,1.72892,2.52445-5.66765,2.25039,1.00177L301.34225,64.974l3.41781,1.52268-.89615,2.01467-3.42005-1.52045-2.49222,5.59761c1.28419.13564,2.52724.26573,3.7436.39081-.41249.93062-.73326,1.70169-.95285,2.30153-1.25693-.13842-2.52168-.28252-3.80307-.41528l-4.19391,9.41671q-1.37592,3.09889-4.31565,1.82688c-.785-.32588-1.72115-.74383-2.79908-1.24583.2446-.87447.48587-1.75672.71936-2.65788a28.46055,28.46055,0,0,0,2.52446,1.33311,1.24055,1.24055,0,0,0,1.84067-.74939l3.643-8.18154c-1.50933-.14621-3.03757-.28753-4.57137-.42306Zm11.80007,2.66844.86-1.93017,7.50833,3.34155,1.98965-4.46785-7.62173-3.39615.9473-2.13086,7.62229,3.396,2.09528-4.7069,2.33711,1.04236-2.09528,4.70412,7.94806,3.53969-.94786,2.12808-7.9475-3.53679-1.99021,4.47075,6.22193,2.7685-.77943,1.75383a25.913,25.913,0,0,1-10.07336,6.8569,25.18078,25.18078,0,0,0,6.382,7.565c-1.12686.52924-2.08194.999-2.87191,1.41706a32.9405,32.9405,0,0,1-5.9584-8.26828,41.9403,41.9403,0,0,1-11.17521.92006,26.60461,26.60461,0,0,0-.62708-2.7635,34.67965,34.67965,0,0,0,10.86057-.4175,24.70125,24.70125,0,0,1-.73829-11.41982Zm-59.917-9.33231,23.46115,3.29552-.33634,2.40493-23.46115-3.29563Zm6.04513-4.18845.33967-2.41038,3.02368-12.32653,2.62785.36913-1.19746,4.96708,22.46551,3.15721-.33691,2.40494-22.6873-3.18657-1.203,4.99165,20.86387,2.93751q-1.31507,6.59606-2.5923,12.25593-.92061,3.298-2.56781,4.25894c-1.05626.62931-2.69846.78163-4.92437.4692q-3.11874-.472-7.18811-1.13742c-.0267-.73549-.07563-1.67723-.15179-2.83077q4.764,1.02567,7.13085,1.38981,4.21031.87891,5.09506-2.674.99732-4.1486,2.07638-9.71757Zm-52.89959-9.73692,1.675-1.62619q2.23149,1.85723,4.44629,4.06114l-1.94351,1.82121A48.93866,48.93866,0,0,0,195.59974,51.03525Zm8.41224-2.15532,1.89181-1.49322q2.284,2.264,4.30231,4.66366l-2.09805,1.61774Q206.36523,51.39243,204.012,48.87993ZM213.6078,51.893a48.4453,48.4453,0,0,0,3.29775-5.467l2.51667,1.35479q-1.73115,2.63841-3.708,5.52923Zm-19.78593,4.65254,28.87922-4.05547.89835,6.39536-2.50277.35023-.5726-4.08271-23.87643,3.355.5754,4.08271-2.50279.353Zm.74105,13.07313,14.8182-2.08194-.25241-1.7784,5.56759-4.2645-14.881,2.09028-.32577-2.31265,18.59182-2.614.37134,2.66288-6.60383,5.1601.09728.6949,13.6135-1.91349.323,2.30987-13.6107,1.91127.67043,4.78262q.52951,3.73832-3.246,4.2645c-1.39537.19791-3.02979.40694-4.916.62987q-.24434-1.06321-.755-2.63564c1.7078-.07339,3.33889-.20125,4.881-.40194,1.10185-.13286,1.56883-.78719,1.40318-1.97075l-.60542-4.30787L194.88591,71.9258Zm-35.80157,5.57816.73882-2.112q4.49049,1.11573,6.87012,1.90849l-.72492,2.46163Q163.634,76.62865,158.76135,75.19687ZM157.36653,67.42l.68935-2.058q4.35289,1.039,7.19867,2.01189l-.75439,2.39937A69.63154,69.63154,0,0,0,157.36653,67.42Zm2.98865,16.064,10.99064-6.11851-8.03756-18.05367,2.25316-.999,7.94806,17.8473,4.41627-2.49432,1.113,2.02245-4.59307,2.57327,3.87369,8.70812-2.25039.999-3.7864-8.49954L161.51929,85.4876Zm-9.85933,6.2486a35.56836,35.56836,0,0,0,.58928-12.19866l-4.61473,2.05747-.92284-2.07638,4.791-2.13364-1.9135-4.2973c-1.42817.82-2.77962,1.59106-4.05269,2.29375a16.34944,16.34944,0,0,0-1.5477-1.89737q5.48532-2.93529,10.67376-6.292l1.72337,1.8162q-2.47164,1.52685-4.72314,2.83911l2.033,4.563,4.6392-2.0686.92561,2.07416-4.6414,2.06581,1.46818,3.30053.76551-1.7456q2.90693.87558,5.45863,1.80786l-.8956,2.39159q-2.80519-1.26584-5.16009-2.07638l6.37368,14.31607-2.19368.97743L153.40334,82.271a33.61723,33.61723,0,0,1-.68935,9.44906Q151.68331,90.73442,150.49585,89.73264Zm-38.89029,27.35374a35.98433,35.98433,0,0,0-3.70524-12.03856l-3.6074,3.13542-1.42261-1.63943,3.7625-3.27117-4.13442-4.75583,1.73727-1.51212,4.13441,4.75583,3.37669-2.93406,1.4254,1.63664-3.37725,2.937,3.48565,4.00933.11952-1.80787q3.33473.08172,5.31187.21459l-.14343,2.46219q-2.91525-.35023-4.9544-.4831l11.07514,12.73891-1.73727,1.51167-11.243-12.93137a28.65833,28.65833,0,0,1,2.5378,9.40014C113.3595,118.01477,112.48225,117.54,111.60556,117.08638Zm2.54336-22.76069,6.94128,7.98587q7.51249,8.64074,6.566,16.27915c-.92562-.158-1.87013-.288-2.84467-.40193q.89562-6.6736-5.27406-13.76249l-8.917-10.25792,8.97652-7.807L135.37637,104.513c.69768.80387,1.33032.964,1.8918.47254l.55648-.4831c.5159-.4453.45086-1.18635-.18456-2.20981q-1.37592-2.068-3.146-4.29952a26.35025,26.35025,0,0,0,2.50277-.82555q1.86041,2.58171,2.967,4.289,1.83622,2.89926-.23905,4.69868l-1.27584,1.113q-2.31654,2.01134-4.712-.73826l-14.47351-16.6533ZM83.831,148.12645l10.39134-15.40468-1.77841-1.19969L82.05314,146.92677Zm3.15153,2.12864,10.39135-15.40746L95.601,133.65294,85.21024,149.05763Zm2.30766-20.85831L78.89882,144.80146l1.77785,1.19691,10.39135-15.402Zm-2.23706,28.65116,4.86156-7.20968a14.73967,14.73967,0,0,0-1.596-1.23193l1.30585-1.93852a17.62723,17.62723,0,0,1,1.6044,1.22193l5.85778-8.68411-1.64776-1.1074,1.32477-1.9652,1.645,1.11019,4.23724-6.27584,1.64221,1.1074-4.23727,6.27862L106.505,142.356l-1.327,1.96242-4.44907-3.00256-6.04512,8.961q2.91943,3.35474.45585,9.44628-1.16075-.05337-2.54057-.0139,2.22731-4.89825.68656-7.36434l-4.59025,6.81064ZM76.16256,145.6537l2.97253-4.40293c-1.25973.10618-2.45664.24728-3.6074.4264l-.04336-1.41706-1.49876,2.22315a30.11669,30.11669,0,0,1,1.24081,6.04513c-.70325.09228-1.45486.23349-2.24761.41527a22.37539,22.37539,0,0,0-2.73348-9.32953l1.5199-2.25039a29.73441,29.73441,0,0,1,1.43039,2.96976l5.204-7.7118,1.53879,1.0368-4.02268,5.964c1.0696-.20125,2.17423-.383,3.30053-.55426l.1034,1.90849,8.2466-12.22312a31.09254,31.09254,0,0,0-3.79475.70269l-.06782-1.38148-1.78063,2.63831a29.013,29.013,0,0,1,1.39482,4.10729,20.44111,20.44111,0,0,0-2.33711.77329,24.29645,24.29645,0,0,0-3.01034-7.42672l1.53658-2.28251c.55926.96619,1.064,1.91627,1.52268,2.83633l5.66821-8.39836,1.536,1.034-4.07717,6.04513a29.34775,29.34775,0,0,1,3.34722-.79l.16789,1.98187,1.38483-2.05537,11.93015,8.0488-1.24862,1.854-.87948-.59206L88.46742,151.25353l.87945.59484-1.25138,1.854Zm-26.08566,47.232q4.44961-2.284,6.55769-3.27885l1.15132,2.69012a61.92745,61.92745,0,0,0-6.65331,2.94752Zm24.031-3.0209c1.08015.26006,1.98686.46642,2.72791.60262q1.56354,5.82221,2.853,9.69867l-2.53.83056a3.636,3.636,0,0,0-2.45385-1.92462L62.59855,195.3723,61.271,199.71241l-2.20424-.67056,2.07694-6.79107,14.856,4.54358Q75.19,193.64727,74.10787,189.86475ZM62.24,189.31049l2.72014-8.89769-10.51866-3.21425.80332-2.63008,10.51866,3.21381,2.7418-8.96051,2.20425.67611-2.74183,8.9604,17.24814,5.27128-.80387,2.63064-17.24756-5.27184-2.72014,8.89536Z" transform="translate(-28 -27.83705)" style="fill: #fff"/>
  <path d="M410.70326,269.94409l-5.413-.855-8.14875,3.75694.3258-2.05748,4.25391-1.90849q1.1883-.52535,2.36658-.95508c-.60763-.48866-1.28641-1.07516-2.0358-1.75116l-3.36557-3.07271.31187-1.97065,6.55825,6.2675,5.41527.855-.26851,1.69112m-7.8341,10.8799-1.45483-.41795,1.501-5.27183L407.53,276.459a9.74352,9.74352,0,0,1,.73826,2.92083,7.75214,7.75214,0,0,1-.27129,2.78518,7.37811,7.37811,0,0,1-1.74,3.10818,5.43573,5.43573,0,0,1-2.91805,1.6094,7.43922,7.43922,0,0,1-3.53736-.18735,8.00747,8.00747,0,0,1-3.17044-1.73448,5.227,5.227,0,0,1-1.71556-2.853,7.19378,7.19378,0,0,1,.17954-3.504,6.76359,6.76359,0,0,1,1.13743-2.31321,4.18579,4.18579,0,0,1,1.70726-1.35979,5.63639,5.63639,0,0,1,2.30429-.3609l-.01334,1.60395a4.84944,4.84944,0,0,0-1.69668.26629,2.929,2.929,0,0,0-1.208.94173,4.51074,4.51074,0,0,0-.81943,1.61774,5.24206,5.24206,0,0,0-.21459,2.0497,3.748,3.748,0,0,0,.52368,1.5905,4.38637,4.38637,0,0,0,1.00456,1.13742,6.815,6.815,0,0,0,2.36435,1.19191,6.32222,6.32222,0,0,0,2.94807.22515,3.83262,3.83262,0,0,0,2.14142-1.19191,5.33095,5.33095,0,0,0,1.21081-2.16588,5.69977,5.69977,0,0,0,.18456-2.207,5.45073,5.45073,0,0,0-.43417-1.79675l-2.31821-.66267Zm-7.3888,17.95082a5.20126,5.20126,0,0,0,3.88981.14632,4.39225,4.39225,0,0,0,2.261-5.92283,5.50623,5.50623,0,0,0-3.15379-2.55169,6.65967,6.65967,0,0,0-2.76628-.48588,4.09473,4.09473,0,0,0-2.26651.80109,4.25015,4.25015,0,0,0-1.43317,1.92461,4.35083,4.35083,0,0,0,.04614,3.36835Q392.75383,297.72422,395.48036,298.77481Zm-.65988,1.63675a7.03322,7.03322,0,0,1-4.08772-3.42283,5.89075,5.89075,0,0,1-.10062-4.82387,6.20843,6.20843,0,0,1,1.95741-2.70891,5.60109,5.60109,0,0,1,3.01589-1.19135,7.71656,7.71656,0,0,1,3.50956.54248,7.54451,7.54451,0,0,1,3.00477,2.00088,5.44036,5.44036,0,0,1,1.38981,2.94529,6.44,6.44,0,0,1-.37969,3.21936,6.08318,6.08318,0,0,1-1.99522,2.7306,5.62915,5.62915,0,0,1-3.032,1.17255A7.248,7.248,0,0,1,394.82048,300.41156Zm1.561,11.99242L384.55977,307.141l.69768-1.56938,10.42638,4.642,2.59228-5.82,1.39537.62152ZM384.343,321.45722a5.20416,5.20416,0,0,0,3.83254.68657,4.3887,4.3887,0,0,0,3.062-5.55091,5.499,5.499,0,0,0-2.76851-2.9642,6.6443,6.6443,0,0,0-2.674-.86613,4.078,4.078,0,0,0-2.35323.47743,4.249,4.249,0,0,0-1.68612,1.70513,4.36159,4.36159,0,0,0-.42306,3.34111Q381.78459,320.04157,384.343,321.45722Zm-.87946,1.53046a7.02731,7.02731,0,0,1-3.57239-3.96052,5.88951,5.88951,0,0,1,.56982-4.79085,6.25031,6.25031,0,0,1,2.31543-2.41049,5.64644,5.64644,0,0,1,3.15432-.75717,7.74143,7.74143,0,0,1,3.39892,1.02057,7.61441,7.61441,0,0,1,2.69791,2.40226,5.42141,5.42141,0,0,1,.9662,3.10818,6.42774,6.42774,0,0,1-.825,3.13819,6.081,6.081,0,0,1-2.356,2.42662,5.62564,5.62564,0,0,1-3.16543.741A7.27421,7.27421,0,0,1,383.4635,322.98768Zm-1.89461,14.414-10.85275-7.04691.9584-1.47376,12.22034-.16844-8.52066-5.52923.89561-1.3787,10.85275,7.04913-.95563,1.47432-12.23147.16288,8.529,5.537Zm-8.494,11.2269-10.19789-7.967,1.0557-1.35434,4.18834,3.274,4.13942-5.2963-4.18834-3.27606,1.05626-1.34923,10.19789,7.967-1.0557,1.352L373.463,338.2217l-4.13942,5.3013,4.80764,3.75138Zm-6.3192.57594,1.48488-.95563a5.8,5.8,0,0,1,1.034,3.61017,5.37893,5.37893,0,0,1-1.52546,3.26,6.16437,6.16437,0,0,1-2.94529,1.9056,5.3091,5.3091,0,0,1-3.16488-.225,8.819,8.819,0,0,1-3.002-1.86523,7.59827,7.59827,0,0,1-2.05245-2.96965,5.28262,5.28262,0,0,1-.17347-3.16777,6.40167,6.40167,0,0,1,1.56884-2.82566,5.30968,5.30968,0,0,1,2.95083-1.71558,5.12871,5.12871,0,0,1,3.29.5487l-.85557,1.50655a3.96343,3.96343,0,0,0-2.39937-.44807,3.45006,3.45006,0,0,0-1.94071,1.13464,4.19075,4.19075,0,0,0-1.17525,2.30709,3.77964,3.77964,0,0,0,.44474,2.34267,7.69368,7.69368,0,0,0,1.53936,1.98687,7.89594,7.89594,0,0,0,2.435,1.6183,3.5887,3.5887,0,0,0,2.36713.16,4.18891,4.18891,0,0,0,1.94351-1.1918,3.70587,3.70587,0,0,0,1.0557-2.34544A4.27394,4.27394,0,0,0,366.75571,349.20455ZM354.4075,368.11879l-8.99042-9.31063,6.72948-6.49821,1.06126,1.09906-5.497,5.30964,2.75238,2.85023,5.14954-4.97275,1.05348,1.09351-5.14954,4.97052,3.05926,3.17034,5.7166-5.51856,1.06124,1.09684Zm-6.8512,5.69768-7.02524-8.9932-3.36057,2.625-.939-1.20514,8.08093-6.311.94174,1.19979-3.37389,2.63843,7.0252,8.99542Zm-16.27083,10.28239,2.207-1.66111a6.7026,6.7026,0,0,0,1.46319-1.40093,2.87032,2.87032,0,0,0,.52091-1.23471,4.03842,4.03842,0,0,0-.22793-1.87847A7.92023,7.92023,0,0,0,334.019,375.73a6.01566,6.01566,0,0,0-2.40771-2.0925,3.34932,3.34932,0,0,0-2.17422-.19291,6.71476,6.71476,0,0,0-1.92738,1.12408l-2.17424,1.63665Zm-.44752,2.25038L323.05,376.015l3.55848-2.68168a10.92379,10.92379,0,0,1,1.95463-1.238,4.405,4.405,0,0,1,2.07084-.40415,5.346,5.346,0,0,1,2.55446.84378,8.6843,8.6843,0,0,1,2.25872,2.15043,8.95382,8.95382,0,0,1,1.29475,2.29374,6.29785,6.29785,0,0,1,.4314,2.04081,4.57642,4.57642,0,0,1-.23905,1.64265,4.68489,4.68489,0,0,1-.83833,1.4494,8.80489,8.80489,0,0,1-1.52824,1.42762Zm-12.35377,6.84066-6.46874-11.208,1.52045-.87725,10.9662,5.39637-5.079-8.79474,1.42261-.82221,6.46874,11.208-1.52265.87669-10.96954-5.40748,5.08449,8.80585Zm-11.87567-.09228,3.97931-1.85123-2.74182-2.67678q-1.24583-1.21747-1.9652-2.04636a16.264,16.264,0,0,1,.4125,2.535Zm-1.13742,6.39536-.964-13.83031,1.67222-.7794,10.269,9.49019-1.76728.82778-3.02644-2.91527-4.90495,2.28818.37192,4.15044Zm-13.64852,5.42082-4.84542-11.998,8.673-3.50733.57261,1.41705-7.08749,2.86079,1.48487,3.67856,6.63664-2.68512.57038,1.40927-6.64,2.68178,1.65054,4.08494,7.36712-2.97486.5726,1.41438Zm-6.00731-3.11651,1.76727-.08673a5.79334,5.79334,0,0,1-.91227,3.64576,5.36666,5.36666,0,0,1-2.9503,2.06026,6.20058,6.20058,0,0,1-3.50177.18179,5.34831,5.34831,0,0,1-2.63008-1.78063,8.818,8.818,0,0,1-1.66667-3.11652,7.57286,7.57286,0,0,1-.29352-3.59683,5.27341,5.27341,0,0,1,1.43595-2.83077,6.36773,6.36773,0,0,1,2.76906-1.66166,5.2691,5.2691,0,0,1,3.4145-.01057,5.13362,5.13362,0,0,1,2.57339,2.117l-1.49268.87447a4.02764,4.02764,0,0,0-1.85178-1.5855,3.48546,3.48546,0,0,0-2.24983.0139,4.20325,4.20325,0,0,0-2.17422,1.41149,3.76264,3.76264,0,0,0-.78219,2.24983,7.66261,7.66261,0,0,0,.33689,2.495,7.87564,7.87564,0,0,0,1.30031,2.614,3.59714,3.59714,0,0,0,1.97075,1.32477,4.17587,4.17587,0,0,0,2.27987-.06282,3.703,3.703,0,0,0,2.08748-1.501A4.265,4.265,0,0,0,285.81526,401.79729Zm-21.35755,9.73981-2.2476-12.74459,1.7295-.30409,8.45838,8.82476-1.7645-10.00554,1.61774-.28519,2.24482,12.74458-1.72892.304-8.4584-8.83577,1.7645,10.01388Zm-12.82018,1.84845-1.80231-12.81529,9.26449-1.30577.21181,1.5149-7.56837,1.06394.55148,3.92549,7.08971-.999.209,1.50656-7.08749.99343.61374,4.36235,7.86912-1.10528.21181,1.515Zm-5.76272.41249L244.748,400.90447l1.705-.14676,1.1263,12.89134Zm-5.27962-4.39736,1.72892.37469a5.78006,5.78006,0,0,1-1.824,3.2844,5.34146,5.34146,0,0,1-3.38225,1.22137,6.13374,6.13374,0,0,1-3.42839-.73,5.31329,5.31329,0,0,1-2.07971-2.39427,8.82193,8.82193,0,0,1-.80329-3.44451,7.57767,7.57767,0,0,1,.646-3.5508,5.29517,5.29517,0,0,1,2.11752-2.36424,6.40285,6.40285,0,0,1,3.10818-.88792,5.28007,5.28007,0,0,1,3.29775.87458,5.10937,5.10937,0,0,1,1.94129,2.7118l-1.66945.45864a3.97689,3.97689,0,0,0-1.37925-2.01134,3.44357,3.44357,0,0,0-2.177-.5676,4.15652,4.15652,0,0,0-2.46442.80109,3.76641,3.76641,0,0,0-1.33866,1.968,7.66279,7.66279,0,0,0-.32022,2.49444,7.92507,7.92507,0,0,0,.581,2.86635,3.60422,3.60422,0,0,0,1.55825,1.78619,4.21251,4.21251,0,0,0,2.22037.532,3.692,3.692,0,0,0,2.40493-.91172A4.23837,4.23837,0,0,0,240.59519,409.40068Zm-22.351-.07061,1.62052.00278a3.58352,3.58352,0,0,0,.39082,1.63109,2.916,2.916,0,0,0,1.21024,1.11574,4.93286,4.93286,0,0,0,1.9463.5537,4.82522,4.82522,0,0,0,1.74838-.13565,2.39484,2.39484,0,0,0,1.18079-.69779,1.8649,1.8649,0,0,0,.46419-1.07172,1.652,1.652,0,0,0-.26072-1.0885,2.6394,2.6394,0,0,0-1.09406-.86613,23.51363,23.51363,0,0,0-2.23927-.82777,11.76817,11.76817,0,0,1-2.41883-1.02346,3.53257,3.53257,0,0,1-1.27307-1.322,2.96557,2.96557,0,0,1-.30909-1.6422,3.26561,3.26561,0,0,1,.711-1.77285,3.42742,3.42742,0,0,1,1.73169-1.15076,6.22661,6.22661,0,0,1,2.40493-.23349,6.47264,6.47264,0,0,1,2.48944.68434,3.661,3.661,0,0,1,1.56381,1.50378,3.9311,3.9311,0,0,1,.45586,2.0875l-1.64776-.01946a2.66117,2.66117,0,0,0-.73269-1.92683,3.465,3.465,0,0,0-2.18814-.81721,3.5925,3.5925,0,0,0-2.30709.37191,1.69929,1.69929,0,0,0-.82833,1.30309,1.46985,1.46985,0,0,0,.39916,1.183,6.7673,6.7673,0,0,0,2.49443,1.14576,16.94178,16.94178,0,0,1,2.77963,1.07238,3.90772,3.90772,0,0,1,1.54769,1.46041,3.19629,3.19629,0,0,1,.3747,1.87847,3.48751,3.48751,0,0,1-.75773,1.88893,3.89386,3.89386,0,0,1-1.81565,1.26751,5.96622,5.96622,0,0,1-2.52724.29086,7.44978,7.44978,0,0,1-2.88858-.76829,4.1307,4.1307,0,0,1-1.72059-1.69669A4.35706,4.35706,0,0,1,218.24422,409.33007ZM203.515,404.29728l3.62686.6382a5.46553,5.46553,0,0,0,1.84845.07839,1.94858,1.94858,0,0,0,1.1263-.58872,2.10676,2.10676,0,0,0,.54036-1.0835,1.91689,1.91689,0,0,0-.39359-1.60107,3.11889,3.11889,0,0,0-1.97076-.95007l-4.03379-.71159Zm-2.93971,6.82176,2.24481-12.74469,5.65153.99632a7.62414,7.62414,0,0,1,2.53.80054,2.87809,2.87809,0,0,1,1.20524,1.46041,3.67847,3.67847,0,0,1,.18737,2.01412,3.25337,3.25337,0,0,1-1.28143,2.13354,4.51816,4.51816,0,0,1-2.92083.706,4.18957,4.18957,0,0,1,.90671.81165,9.00772,9.00772,0,0,1,1.1024,1.94362l1.60387,3.857-2.11976-.37192-1.21859-2.95029c-.35579-.85-.65988-1.50934-.9095-1.968a3.7427,3.7427,0,0,0-.706-1.00455,2.62975,2.62975,0,0,0-.70545-.47754,5.67166,5.67166,0,0,0-.93119-.22293l-1.95742-.34467-.99566,5.65709Zm-12.70624-2.818,2.90971-12.60839,9.1155,2.10352-.34245,1.48776-7.44828-1.71836-.89282,3.85978,6.97575,1.61274-.34189,1.47654-6.97353-1.61-.99343,4.29452,7.74459,1.78619-.34468,1.48765Zm-8.59681-2.386,3.33609-10.91447-4.07438-1.24639.4453-1.46041,9.80707,2.997-.44752,1.46031-4.09383-1.25128-3.3361,10.915Zm-3.44453-14.90768,1.5905.64032-2.80408,6.93582a8.75641,8.75641,0,0,1-1.56882,2.70625,3.80464,3.80464,0,0,1-2.177,1.13176,5.64213,5.64213,0,0,1-3.07315-.4641,6.18725,6.18725,0,0,1-2.5189-1.69668,3.55839,3.55839,0,0,1-.855-2.30153,8.65833,8.65833,0,0,1,.75717-3.18934l2.80131-6.93583,1.58827.64331-2.79851,6.92461a7.28425,7.28425,0,0,0-.641,2.41883,2.4068,2.4068,0,0,0,.53758,1.54714,3.74778,3.74778,0,0,0,1.56882,1.10184,3.55914,3.55914,0,0,0,2.82078.2117,4.94483,4.94483,0,0,0,1.973-2.7495Zm-19.881-2.02746,2.95585,1.5716a3.54834,3.54834,0,0,0,2.36991.56148,2.19686,2.19686,0,0,0,1.4304-1.20747,2.32682,2.32682,0,0,0,.29074-1.42261,1.89738,1.89738,0,0,0-.59483-1.18078,7.46431,7.46431,0,0,0-1.35424-.84946l-2.92639-1.55547Zm-4.69866,5.19234,6.07735-11.42492,4.31065,2.28829a11.87628,11.87628,0,0,1,1.67778,1.034,3.90192,3.90192,0,0,1,1.12908,1.287,3.17235,3.17235,0,0,1,.32855,1.58494,3.9246,3.9246,0,0,1-.4831,1.74283,3.98456,3.98456,0,0,1-2.23926,1.97853q-1.46181.51368-3.88759-.77617l-2.93139-1.55538-2.47,4.642Zm-13.96319-7.75793,6.471-11.208,2.23426,1.28919-1.933,9.463q-.26852,1.32754-.42084,1.97075c.36136-.33133.90672-.81721,1.63442-1.45208l7.18256-6.24637,1.998,1.15132-6.47152,11.208-1.4304-.82833,5.41527-9.38134-8.67021,7.50287-1.33811-.77329,2.2665-11.41148-5.50754,9.54134Zm-7.6901-13.05657a5.20676,5.20676,0,0,0-1.15133,3.71869,4.38794,4.38794,0,0,0,5.13841,3.71636,5.49482,5.49482,0,0,0,3.2794-2.38325,6.64957,6.64957,0,0,0,1.18635-2.54892,4.12465,4.12465,0,0,0-.18735-2.39725,4.26059,4.26059,0,0,0-1.48765-1.87837,4.35825,4.35825,0,0,0-3.26551-.82777Q131.31172,370.99321,129.59475,373.35772Zm-1.41429-1.05837a7.03441,7.03441,0,0,1,4.36457-3.06482,5.89787,5.89787,0,0,1,4.68534,1.15077,6.204,6.204,0,0,1,2.112,2.59228,5.62165,5.62165,0,0,1,.37191,3.21936,7.75494,7.75494,0,0,1-1.43317,3.25216,7.61053,7.61053,0,0,1-2.7118,2.386,5.43367,5.43367,0,0,1-3.20325.58094,6.41511,6.41511,0,0,1-3.01031-1.20246,6.09622,6.09622,0,0,1-2.12532-2.63342,5.66437,5.66437,0,0,1-.34745-3.22993A7.3241,7.3241,0,0,1,128.18046,372.29935Zm-4.03657-.904,1.00956,1.4494a5.7905,5.7905,0,0,1-3.5746,1.1591,5.35551,5.35551,0,0,1-3.30886-1.41149,6.15689,6.15689,0,0,1-2.00911-2.87469,5.30476,5.30476,0,0,1,.114-3.17044,8.83923,8.83923,0,0,1,1.75893-3.06759,7.60625,7.60625,0,0,1,2.89637-2.15533,5.26949,5.26949,0,0,1,3.15987-.27963,6.40681,6.40681,0,0,1,2.88025,1.466,5.30737,5.30737,0,0,1,1.81565,2.89081,5.13746,5.13746,0,0,1-.43139,3.30664l-1.53379-.804a3.98692,3.98692,0,0,0,.36078-2.41272,3.43912,3.43912,0,0,0-1.20246-1.9,4.18035,4.18035,0,0,0-2.34767-1.09406,3.761,3.761,0,0,0-2.32377.52646,7.6777,7.6777,0,0,0-1.93518,1.60718,7.96178,7.96178,0,0,0-1.531,2.48887,3.62757,3.62757,0,0,0-.07616,2.37269,4.20839,4.20839,0,0,0,1.25972,1.90283,3.68144,3.68144,0,0,0,2.38325.97186A4.26087,4.26087,0,0,0,124.14389,371.39531Zm-21.53153-13.85744,9.46574-8.82476,5.95562,6.387-1.11852,1.04236-4.7854-5.133-2.93194,2.73358,4.13941,4.44073-1.11518,1.04226-4.14-4.44063-4.29953,4.00934ZM98.066,343.121a5.19118,5.19118,0,0,0-1.95741,3.36623,4.391,4.391,0,0,0,4.16944,4.77762,5.50308,5.50308,0,0,0,3.73248-1.58828,6.59023,6.59023,0,0,0,1.72893-2.2148,4.0937,4.0937,0,0,0,.35579-2.37769,4.23059,4.23059,0,0,0-1.02624-2.16366,4.37194,4.37194,0,0,0-2.99643-1.54436Q100.273,341.20507,98.066,343.121Zm-1.1402-1.34857a7.05037,7.05037,0,0,1,4.94329-2.00633,5.89514,5.89514,0,0,1,4.30786,2.17978,6.20074,6.20074,0,0,1,1.471,2.997,5.58334,5.58334,0,0,1-.36358,3.22437,7.72073,7.72073,0,0,1-2.12307,2.84522,7.63781,7.63781,0,0,1-3.181,1.71559,5.44181,5.44181,0,0,1-3.24938-.15789,6.44708,6.44708,0,0,1-2.66566-1.84567,6.07382,6.07382,0,0,1-1.47654-3.04536,5.65316,5.65316,0,0,1,.388-3.2277A7.32187,7.32187,0,0,1,96.9258,341.77239ZM84.96563,335.6372l4.48965-3.1432,3.24938-8.36344,1.19469,1.70513-1.73227,4.32954c-.328.80321-.67322,1.57716-1.03958,2.33155.77663-.0706,1.67223-.1223,2.68179-.15455l4.55525-.13064,1.1452,1.6372-9.07435.04614-4.48966,3.146Zm-6.6989-10.5131,9.98108-5.53479L86.182,315.86239l1.33534-.74105,4.97275,8.96874-1.33534.74094-2.07638-3.74349-9.98108,5.53257ZM72.121,313.70429l11.531-5.87669.77607,1.52824L74.2574,314.53762,77.151,320.2164l-1.36035.69212Zm9.31619-10.24681.69769,1.56593L75.302,308.06665a8.82523,8.82523,0,0,1-3.00755.85224,3.76174,3.76174,0,0,1-2.35323-.69491,5.63682,5.63682,0,0,1-1.88959-2.46775,6.21,6.21,0,0,1-.63487-2.972,3.53475,3.53475,0,0,1,.9851-2.24482,8.57554,8.57554,0,0,1,2.76073-1.77285l6.83231-3.04035.69769,1.56382-6.82676,3.03757a7.26286,7.26286,0,0,0-2.1392,1.29475,2.39093,2.39093,0,0,0-.68657,1.48487,3.70581,3.70581,0,0,0,.3608,1.88348,3.57106,3.57106,0,0,0,1.88125,2.11185,4.95911,4.95911,0,0,0,3.33055-.60807Zm-12.69288-8.30663.08673,1.7645a5.77541,5.77541,0,0,1-3.64575-.91227,5.33639,5.33639,0,0,1-2.05748-2.9503A6.14694,6.14694,0,0,1,62.946,289.551a5.31715,5.31715,0,0,1,1.77785-2.62786,8.816,8.816,0,0,1,3.1165-1.66944,7.60274,7.60274,0,0,1,3.59628-.293,5.26532,5.26532,0,0,1,2.83132,1.43595,6.3879,6.3879,0,0,1,1.66389,2.77129,5.27615,5.27615,0,0,1,.00834,3.41227,5.10233,5.10233,0,0,1-2.11752,2.57337l-.87392-1.49265a4.0001,4.0001,0,0,0,1.5855-1.8519,3.47026,3.47026,0,0,0-.0139-2.24972,4.17089,4.17089,0,0,0-1.41149-2.172,3.77,3.77,0,0,0-2.25039-.78441,7.77109,7.77109,0,0,0-2.49165.33689,7.93977,7.93977,0,0,0-2.61673,1.3002,3.60572,3.60572,0,0,0-1.322,1.968,4.19059,4.19059,0,0,0,.05949,2.28551,3.695,3.695,0,0,0,1.50377,2.08472A4.27641,4.27641,0,0,0,68.74429,295.15085ZM63.766,275.9353l1.21025,4.22113,3.07036-2.28874q1.39675-1.04236,2.32877-1.62052a16.593,16.593,0,0,1-2.5706.00834Zm-6.1402-2.12308,13.81084,1.21347.50756,1.773-10.97729,8.6562-.5398-1.87559,3.35223-2.5329-1.49044-5.20057-4.15832-.28519Zm-1.58827-9.35678,12.78237-2.0219,1.36535,8.62351-1.50656.23627-1.09906-6.93027-3.95762.63.95008,5.99343-1.50934.23905-.95007-5.99621-5.80609.92006Z" transform="translate(-28 -27.83705)" style="fill: #fff"/>
  <line x1="207.22273" y1="152.29067" x2="198.69428" y2="148.64491" style="fill: none;stroke: #fff;stroke-linecap: round;stroke-linejoin: round;stroke-width: 0.216px"/>
  <path d="M230.70361,174.97541s9.677,4.02323,9.791,4.22392" transform="translate(-28 -27.83705)" style="fill: none;stroke: #fff;stroke-linecap: round;stroke-linejoin: round;stroke-width: 0.216px"/>
  <line x1="207.19326" y1="146.41899" x2="215.49378" y2="149.93466" style="fill: none;stroke: #fff;stroke-linecap: round;stroke-linejoin: round;stroke-width: 0.216px"/>
</svg>
