<svg id="diagram" width="100%" xmlns="http://www.w3.org/2000/svg" style="max-width: 831.2262573242188px;" viewBox="5 5 831.2262573242188 474.166748046875" aria-roledescription="mindmap" height="474.166748046875" preserveAspectRatio="xMinYMin"><style>#diagram{font-family:"trebuchet ms",verdana,arial,sans-serif;font-size:16px;fill:#ccc;}#diagram .error-icon{fill:#a44141;}#diagram .error-text{fill:#ddd;stroke:#ddd;}#diagram .edge-thickness-normal{stroke-width:2px;}#diagram .edge-thickness-thick{stroke-width:3.5px;}#diagram .edge-pattern-solid{stroke-dasharray:0;}#diagram .edge-pattern-dashed{stroke-dasharray:3;}#diagram .edge-pattern-dotted{stroke-dasharray:2;}#diagram .marker{fill:lightgrey;stroke:lightgrey;}#diagram .marker.cross{stroke:lightgrey;}#diagram svg{font-family:"trebuchet ms",verdana,arial,sans-serif;font-size:16px;}#diagram .edge{stroke-width:3;}#diagram .section--1 rect,#diagram .section--1 path,#diagram .section--1 circle,#diagram .section--1 polygon,#diagram .section--1 path{fill:#1f2020;}#diagram .section--1 text{fill:lightgrey;}#diagram .node-icon--1{font-size:40px;color:lightgrey;}#diagram .section-edge--1{stroke:#1f2020;}#diagram .edge-depth--1{stroke-width:17;}#diagram .section--1 line{stroke:#e0dfdf;stroke-width:3;}#diagram .disabled,#diagram .disabled circle,#diagram .disabled text{fill:lightgray;}#diagram .disabled text{fill:#efefef;}#diagram .section-0 rect,#diagram .section-0 path,#diagram .section-0 circle,#diagram .section-0 polygon,#diagram .section-0 path{fill:#0b0000;}#diagram .section-0 text{fill:lightgrey;}#diagram .node-icon-0{font-size:40px;color:lightgrey;}#diagram .section-edge-0{stroke:#0b0000;}#diagram .edge-depth-0{stroke-width:14;}#diagram .section-0 line{stroke:#f4ffff;stroke-width:3;}#diagram .disabled,#diagram .disabled circle,#diagram .disabled text{fill:lightgray;}#diagram .disabled text{fill:#efefef;}#diagram .section-1 rect,#diagram .section-1 path,#diagram .section-1 circle,#diagram .section-1 polygon,#diagram .section-1 path{fill:#4d1037;}#diagram .section-1 text{fill:lightgrey;}#diagram .node-icon-1{font-size:40px;color:lightgrey;}#diagram .section-edge-1{stroke:#4d1037;}#diagram .edge-depth-1{stroke-width:11;}#diagram .section-1 line{stroke:#b2efc8;stroke-width:3;}#diagram .disabled,#diagram .disabled circle,#diagram .disabled text{fill:lightgray;}#diagram .disabled text{fill:#efefef;}#diagram .section-2 rect,#diagram .section-2 path,#diagram .section-2 circle,#diagram .section-2 polygon,#diagram .section-2 path{fill:#3f5258;}#diagram .section-2 text{fill:lightgrey;}#diagram .node-icon-2{font-size:40px;color:lightgrey;}#diagram .section-edge-2{stroke:#3f5258;}#diagram .edge-depth-2{stroke-width:8;}#diagram .section-2 line{stroke:#c0ada7;stroke-width:3;}#diagram .disabled,#diagram .disabled circle,#diagram .disabled text{fill:lightgray;}#diagram .disabled text{fill:#efefef;}#diagram .section-3 rect,#diagram .section-3 path,#diagram .section-3 circle,#diagram .section-3 polygon,#diagram .section-3 path{fill:#4f2f1b;}#diagram .section-3 text{fill:lightgrey;}#diagram .node-icon-3{font-size:40px;color:lightgrey;}#diagram .section-edge-3{stroke:#4f2f1b;}#diagram .edge-depth-3{stroke-width:5;}#diagram .section-3 line{stroke:#b0d0e4;stroke-width:3;}#diagram .disabled,#diagram .disabled circle,#diagram .disabled text{fill:lightgray;}#diagram .disabled text{fill:#efefef;}#diagram .section-4 rect,#diagram .section-4 path,#diagram .section-4 circle,#diagram .section-4 polygon,#diagram .section-4 path{fill:#6e0a0a;}#diagram .section-4 text{fill:lightgrey;}#diagram .node-icon-4{font-size:40px;color:lightgrey;}#diagram .section-edge-4{stroke:#6e0a0a;}#diagram .edge-depth-4{stroke-width:2;}#diagram .section-4 line{stroke:#91f5f5;stroke-width:3;}#diagram .disabled,#diagram .disabled circle,#diagram .disabled text{fill:lightgray;}#diagram .disabled text{fill:#efefef;}#diagram .section-5 rect,#diagram .section-5 path,#diagram .section-5 circle,#diagram .section-5 polygon,#diagram .section-5 path{fill:#3b0048;}#diagram .section-5 text{fill:lightgrey;}#diagram .node-icon-5{font-size:40px;color:lightgrey;}#diagram .section-edge-5{stroke:#3b0048;}#diagram .edge-depth-5{stroke-width:-1;}#diagram .section-5 line{stroke:#c4ffb7;stroke-width:3;}#diagram .disabled,#diagram .disabled circle,#diagram .disabled text{fill:lightgray;}#diagram .disabled text{fill:#efefef;}#diagram .section-6 rect,#diagram .section-6 path,#diagram .section-6 circle,#diagram .section-6 polygon,#diagram .section-6 path{fill:#995a01;}#diagram .section-6 text{fill:lightgrey;}#diagram .node-icon-6{font-size:40px;color:lightgrey;}#diagram .section-edge-6{stroke:#995a01;}#diagram .edge-depth-6{stroke-width:-4;}#diagram .section-6 line{stroke:#66a5fe;stroke-width:3;}#diagram .disabled,#diagram .disabled circle,#diagram .disabled text{fill:lightgray;}#diagram .disabled text{fill:#efefef;}#diagram .section-7 rect,#diagram .section-7 path,#diagram .section-7 circle,#diagram .section-7 polygon,#diagram .section-7 path{fill:#154706;}#diagram .section-7 text{fill:lightgrey;}#diagram .node-icon-7{font-size:40px;color:lightgrey;}#diagram .section-edge-7{stroke:#154706;}#diagram .edge-depth-7{stroke-width:-7;}#diagram .section-7 line{stroke:#eab8f9;stroke-width:3;}#diagram .disabled,#diagram .disabled circle,#diagram .disabled text{fill:lightgray;}#diagram .disabled text{fill:#efefef;}#diagram .section-8 rect,#diagram .section-8 path,#diagram .section-8 circle,#diagram .section-8 polygon,#diagram .section-8 path{fill:#161722;}#diagram .section-8 text{fill:lightgrey;}#diagram .node-icon-8{font-size:40px;color:lightgrey;}#diagram .section-edge-8{stroke:#161722;}#diagram .edge-depth-8{stroke-width:-10;}#diagram .section-8 line{stroke:#e9e8dd;stroke-width:3;}#diagram .disabled,#diagram .disabled circle,#diagram .disabled text{fill:lightgray;}#diagram .disabled text{fill:#efefef;}#diagram .section-9 rect,#diagram .section-9 path,#diagram .section-9 circle,#diagram .section-9 polygon,#diagram .section-9 path{fill:#00296f;}#diagram .section-9 text{fill:lightgrey;}#diagram .node-icon-9{font-size:40px;color:lightgrey;}#diagram .section-edge-9{stroke:#00296f;}#diagram .edge-depth-9{stroke-width:-13;}#diagram .section-9 line{stroke:#ffd690;stroke-width:3;}#diagram .disabled,#diagram .disabled circle,#diagram .disabled text{fill:lightgray;}#diagram .disabled text{fill:#efefef;}#diagram .section-10 rect,#diagram .section-10 path,#diagram .section-10 circle,#diagram .section-10 polygon,#diagram .section-10 path{fill:#01629c;}#diagram .section-10 text{fill:lightgrey;}#diagram .node-icon-10{font-size:40px;color:lightgrey;}#diagram .section-edge-10{stroke:#01629c;}#diagram .edge-depth-10{stroke-width:-16;}#diagram .section-10 line{stroke:#fe9d63;stroke-width:3;}#diagram .disabled,#diagram .disabled circle,#diagram .disabled text{fill:lightgray;}#diagram .disabled text{fill:#efefef;}#diagram .section-root rect,#diagram .section-root path,#diagram .section-root circle,#diagram .section-root polygon{fill:hsl(180, 1.5873015873%, 48.3529411765%);}#diagram .section-root text{fill:undefined;}#diagram .icon-container{height:100%;display:flex;justify-content:center;align-items:center;}#diagram .edge{fill:none;}#diagram :root{--mermaid-font-family:"trebuchet ms",verdana,arial,sans-serif;}</style><g></g><g></g><g class="mindmap-edges"><path d="M 456.4418914387712,225.44163899739553 L 448.2689045444015,197.98745099108592 L440.09591765003177,170.53326298477631" class="edge section-edge-0 edge-depth-0"></path><path d="M 420.79120726635324,347.153526892354 L 460.198830469929,329.71180317970493 L499.6064536735048,312.27007946705584" class="edge section-edge-1 edge-depth-1"></path><path d="M 404.6734883542682,368.03101105767666 L 399.1925261552327,401.8289275117729 L393.7115639561972,435.62684396586917" class="edge section-edge-1 edge-depth-1"></path><path d="M 393.66460642659433,359.94536307204874 L 344.90981970963605,384.3805553138592 L296.1550329926778,408.81574755566965" class="edge section-edge-1 edge-depth-1"></path><path d="M 417.4695323578874,364.03862013497024 L 445.9915238749837,393.7110882344002 L474.5135153920801,423.3835563338302" class="edge section-edge-1 edge-depth-1"></path><path d="M 392.10039993597536,352.3458892038517 L 356.0966637774824,350.2335123948501 L320.0929276189894,348.1211355858485" class="edge section-edge-1 edge-depth-1"></path><path d="M 454.30741475735607,253.3775036088416 L 433.898176801502,296.5212819396695 L413.48893884564797,339.6650602704974" class="edge section-edge-1 edge-depth-0"></path><path d="M 533.0767117711249,126.27516201179267 L 489.16061402400555,100.70147772604858 L445.2445162768862,75.12779344030449" class="edge section-edge-2 edge-depth-1"></path><path d="M 560.98014401426,132.4954891780462 L 607.0520820652927,128.40039006659336 L653.1240201163254,124.30529095514052" class="edge section-edge-2 edge-depth-1"></path><path d="M 559.6765217219424,140.07007310010005 L 606.6870868418811,161.60292476665998 L653.6976519618197,183.13577643321992" class="edge section-edge-2 edge-depth-1"></path><path d="M 558.5224617885402,125.50701253880229 L 603.1808859737818,95.75533891456685 L647.8393101590233,66.00366529033143" class="edge section-edge-2 edge-depth-1"></path><path d="M 545.1105919478546,118.85228874181311 L 542.9354494609781,83.77843035548736 L540.7603069741017,48.704571969161606" class="edge section-edge-2 edge-depth-1"></path><path d="M 470.12715477943124,228.1331935135982 L 503.38037676235297,186.82082328530092 L536.6335987452746,145.50845305700363" class="edge section-edge-2 edge-depth-0"></path><path d="M 611.4962094451782,292.61052392849547 L 675.1314578811543,305.0817868974623 L738.7667063171305,317.5530498664291" class="edge section-edge-3 edge-depth-1"></path><path d="M 606.4375323969282,301.1999828712147 L 631.7456143201479,331.2572359143785 L657.0536962433675,361.3144889575423" class="edge section-edge-3 edge-depth-1"></path><path d="M 590.3515400475088,303.28015488444316 L 575.9609965435171,333.64053046658194 L561.5704530395254,364.0009060487207" class="edge section-edge-3 edge-depth-1"></path><path d="M 611.1678766180571,285.497158422361 L 657.3410965445277,271.9305926513699 L703.5143164709982,258.36402688037884" class="edge section-edge-3 edge-depth-1"></path><path d="M 474.80414924263107,244.9838479478172 L 528.748967626877,264.7719080567938 L582.6937860111228,284.55996816577044" class="edge section-edge-3 edge-depth-0"></path><path d="M 475.12688529329296,235.6359238539447 L 515.5937243520295,223.88735557341082 L556.0605634107661,212.13878729287694" class="edge section-edge-4 edge-depth-0"></path><path d="M 285.33902973157745,210.70192401682866 L 207.16812365579028,223.22198440148398 L128.9972175800031,235.7420447861393" class="edge section-edge-5 edge-depth-1"></path><path d="M 309.5256659632503,220.0387661895931 L 330.84119117828595,246.6599716199526 L352.15671639332163,273.28117705031207" class="edge section-edge-5 edge-depth-1"></path><path d="M 299.26646859115016,193.3557765106113 L 297.05923681393995,155.95912458442845 L294.85200503672974,118.5624726582456" class="edge section-edge-5 edge-depth-1"></path><path d="M 285.5645556290251,204.82869823587149 L 203.57187764854683,185.14792924377312 L121.57919966806853,165.46716025167476" class="edge section-edge-5 edge-depth-1"></path><path d="M 289.34395948855285,218.7327843367812 L 260.7394520377719,246.2699157314262 L232.134944586991,273.8070471260712" class="edge section-edge-5 edge-depth-1"></path><path d="M 446.0020640292138,236.93156693293827 L 380.4359837808041,224.07391863745136 L314.86990353239446,211.2162703419645" class="edge section-edge-5 edge-depth-0"></path></g><g class="mindmap-nodes"><g class="mindmap-node section--1 section-root" transform="translate(424.7373293909794, 221.08478585962712)"><g transform="translate(35.984375, 18.73333396911621)"><circle id="node-0" class="node-bkg node-circle" r="35.984375"></circle></g><g transform="translate(35.984375, 5)"><text dy="1em" alignment-baseline="middle" text-anchor="middle"><tspan x="0" dy="1em">Duyu09</tspan></text></g></g><g class="mindmap-node section-0" transform="translate(403.65985469782356, 137.4234481843123)"><g transform="translate(32.15625, 18.73333396911621)"><circle id="node-1" class="node-bkg node-circle" r="32.15625"></circle></g><g transform="translate(32.15625, 5)"><text dy="1em" alignment-baseline="middle" text-anchor="middle"><tspan x="0" dy="1em">C/C++</tspan></text></g></g><g class="mindmap-node section-1" transform="translate(380.9340242120246, 334.4911100814795)"><g transform="translate(26.140625, 18.73333396911621)"><circle id="node-2" class="node-bkg node-circle" r="26.140625"></circle></g><g transform="translate(26.140625, 5)"><text dy="1em" alignment-baseline="middle" text-anchor="middle"><tspan x="0" dy="1em">Java</tspan></text></g></g><g class="mindmap-node section-1" transform="translate(476.1576465087172, 287.46582833969796)"><g><path id="node-3" class="node-bkg node-no-border" d="M0 32.46666793823242 v-27.46666793823242 q0,-5 5,-5 h64.33073043823242 q5,0 5,5 v32.46666793823242 H0 Z"></path><line class="node-line-1" x1="0" y1="37.46666793823242" x2="74.33073043823242" y2="37.46666793823242"></line></g><g transform="translate(37.16536521911621, 5)"><text dy="1em" alignment-baseline="middle" text-anchor="middle"><tspan x="0" dy="1em">Java   EE</tspan></text></g></g><g class="mindmap-node section-1" transform="translate(360.8416530984408, 431.70007700383394)"><g><path id="node-4" class="node-bkg node-no-border" d="M0 32.46666793823242 v-27.46666793823242 q0,-5 5,-5 h50.9375 q5,0 5,5 v32.46666793823242 H0 Z"></path><line class="node-line-1" x1="0" y1="37.46666793823242" x2="60.9375" y2="37.46666793823242"></line></g><g transform="translate(30.46875, 5)"><text dy="1em" alignment-baseline="middle" text-anchor="middle"><tspan x="0" dy="1em">Swing</tspan></text></g></g><g class="mindmap-node section-1" transform="translate(231.80618558078265, 396.8033326080065)"><g><path id="node-5" class="node-bkg node-no-border" d="M0 32.46666793823242 v-27.46666793823242 q0,-5 5,-5 h91.87760925292969 q5,0 5,5 v32.46666793823242 H0 Z"></path><line class="node-line-1" x1="0" y1="37.46666793823242" x2="101.87760925292969" y2="37.46666793823242"></line></g><g transform="translate(50.938804626464844, 5)"><text dy="1em" alignment-baseline="middle" text-anchor="middle"><tspan x="0" dy="1em">Spring   Boot</tspan></text></g></g><g class="mindmap-node section-1" transform="translate(447.4370430997104, 415.46439844908855)"><g><path id="node-6" class="node-bkg node-no-border" d="M0 32.46666793823242 v-27.46666793823242 q0,-5 5,-5 h64.94271087646484 q5,0 5,5 v32.46666793823242 H0 Z"></path><line class="node-line-1" x1="0" y1="37.46666793823242" x2="74.94271087646484" y2="37.46666793823242"></line></g><g transform="translate(37.47135543823242, 5)"><text dy="1em" alignment-baseline="middle" text-anchor="middle"><tspan x="0" dy="1em">MyBatis</tspan></text></g></g><g class="mindmap-node section-1" transform="translate(282.77623010838204, 328.5092467699883)"><g><path id="node-7" class="node-bkg node-no-border" d="M0 32.46666793823242 v-27.46666793823242 q0,-5 5,-5 h34.68489646911621 q5,0 5,5 v32.46666793823242 H0 Z"></path><line class="node-line-1" x1="0" y1="37.46666793823242" x2="44.68489646911621" y2="37.46666793823242"></line></g><g transform="translate(22.342448234558105, 5)"><text dy="1em" alignment-baseline="middle" text-anchor="middle"><tspan x="0" dy="1em">MQ</tspan></text></g></g><g class="mindmap-node section-2" transform="translate(511.4244651646103, 115.09019277274228)"><g transform="translate(34.61458396911621, 18.73333396911621)"><circle id="node-8" class="node-bkg node-circle" r="34.61458396911621"></circle></g><g transform="translate(34.61458396911621, 5)"><text dy="1em" alignment-baseline="middle" text-anchor="middle"><tspan x="0" dy="1em">Python</tspan></text></g></g><g class="mindmap-node section-2" transform="translate(397.7079601642846, 48.84609474112245)"><g><path id="node-9" class="node-bkg node-no-border" d="M0 32.46666793823242 v-27.46666793823242 q0,-5 5,-5 h59.1484375 q5,0 5,5 v32.46666793823242 H0 Z"></path><line class="node-line-2" x1="0" y1="37.46666793823242" x2="69.1484375" y2="37.46666793823242"></line></g><g transform="translate(34.57421875, 5)"><text dy="1em" alignment-baseline="middle" text-anchor="middle"><tspan x="0" dy="1em">Numpy</tspan></text></g></g><g class="mindmap-node section-2" transform="translate(639.5182399968588, 104.243919422212)"><g><path id="node-10" class="node-bkg node-no-border" d="M0 32.46666793823242 v-27.46666793823242 q0,-5 5,-5 h47.09375 q5,0 5,5 v32.46666793823242 H0 Z"></path><line class="node-line-2" x1="0" y1="37.46666793823242" x2="57.09375" y2="37.46666793823242"></line></g><g transform="translate(28.546875, 5)"><text dy="1em" alignment-baseline="middle" text-anchor="middle"><tspan x="0" dy="1em">Scipy</tspan></text></g></g><g class="mindmap-node section-2" transform="translate(632.6814780809194, 170.64898882234525)"><g><path id="node-11" class="node-bkg node-no-border" d="M0 32.46666793823242 v-27.46666793823242 q0,-5 5,-5 h59.30729293823242 q5,0 5,5 v32.46666793823242 H0 Z"></path><line class="node-line-2" x1="0" y1="37.46666793823242" x2="69.30729293823242" y2="37.46666793823242"></line></g><g transform="translate(34.65364646911621, 5)"><text dy="1em" alignment-baseline="middle" text-anchor="middle"><tspan x="0" dy="1em">Pandas</tspan></text></g></g><g class="mindmap-node section-2" transform="translate(613.557097813837, 38.95381711815901)"><g><path id="node-12" class="node-bkg node-no-border" d="M0 32.46666793823242 v-27.46666793823242 q0,-5 5,-5 h83.53125 q5,0 5,5 v32.46666793823242 H0 Z"></path><line class="node-line-2" x1="0" y1="37.46666793823242" x2="93.53125" y2="37.46666793823242"></line></g><g transform="translate(46.765625, 5)"><text dy="1em" alignment-baseline="middle" text-anchor="middle"><tspan x="0" dy="1em">Matplotlib</tspan></text></g></g><g class="mindmap-node section-2" transform="translate(489.6235139117649, 15)"><g><path id="node-13" class="node-bkg node-no-border" d="M0 32.46666793823242 v-27.46666793823242 q0,-5 5,-5 h90.41667175292969 q5,0 5,5 v32.46666793823242 H0 Z"></path><line class="node-line-2" x1="0" y1="37.46666793823242" x2="100.41667175292969" y2="37.46666793823242"></line></g><g transform="translate(50.208335876464844, 5)"><text dy="1em" alignment-baseline="middle" text-anchor="middle"><tspan x="0" dy="1em">TensorFlow</tspan></text></g></g><g class="mindmap-node section-3" transform="translate(579.4949808627745, 270.9923623157281)"><g transform="translate(17.28125, 18.73333396911621)"><circle id="node-14" class="node-bkg node-circle" r="17.28125"></circle></g><g transform="translate(17.28125, 5)"><text dy="1em" alignment-baseline="middle" text-anchor="middle"><tspan x="0" dy="1em">AI</tspan></text></g></g><g class="mindmap-node section-3" transform="translate(680.7470990230694, 301.7045435409641)"><g><path id="node-15" class="node-bkg node-no-border" d="M0 32.46666793823242 v-27.46666793823242 q0,-5 5,-5 h135.4791717529297 q5,0 5,5 v32.46666793823242 H0 Z"></path><line class="node-line-3" x1="0" y1="37.46666793823242" x2="145.4791717529297" y2="37.46666793823242"></line></g><g transform="translate(72.73958587646484, 5)"><text dy="1em" alignment-baseline="middle" text-anchor="middle"><tspan x="0" dy="1em">Machine   Learning</tspan></text></g></g><g class="mindmap-node section-3" transform="translate(605.4493727775213, 354.05544157479653)"><g><path id="node-16" class="node-bkg node-no-border" d="M0 32.46666793823242 v-27.46666793823242 q0,-5 5,-5 h112.53125 q5,0 5,5 v32.46666793823242 H0 Z"></path><line class="node-line-3" x1="0" y1="37.46666793823242" x2="122.53125" y2="37.46666793823242"></line></g><g transform="translate(61.265625, 5)"><text dy="1em" alignment-baseline="middle" text-anchor="middle"><tspan x="0" dy="1em">Deep   Learning</tspan></text></g></g><g class="mindmap-node section-3" transform="translate(531.5259702397017, 358.8220306792034)"><g><path id="node-17" class="node-bkg node-no-border" d="M0 32.46666793823242 v-27.46666793823242 q0,-5 5,-5 h37.23958396911621 q5,0 5,5 v32.46666793823242 H0 Z"></path><line class="node-line-3" x1="0" y1="37.46666793823242" x2="47.23958396911621" y2="37.46666793823242"></line></g><g transform="translate(23.619791984558105, 5)"><text dy="1em" alignment-baseline="middle" text-anchor="middle"><tspan x="0" dy="1em">NLP</tspan></text></g></g><g class="mindmap-node section-3" transform="translate(669.182001349816, 235.40215504877938)"><g><path id="node-18" class="node-bkg node-no-border" d="M0 32.46666793823242 v-27.46666793823242 q0,-5 5,-5 h87.44792175292969 q5,0 5,5 v32.46666793823242 H0 Z"></path><line class="node-line-3" x1="0" y1="37.46666793823242" x2="97.44792175292969" y2="37.46666793823242"></line></g><g transform="translate(48.723960876464844, 5)"><text dy="1em" alignment-baseline="middle" text-anchor="middle"><tspan x="0" dy="1em">CV   and   VIP</tspan></text></g></g><g class="mindmap-node section-4" transform="translate(539.1480353439634, 189.22325734896208)"><g transform="translate(31.31770896911621, 18.73333396911621)"><circle id="node-19" class="node-bkg node-circle" r="31.31770896911621"></circle></g><g transform="translate(31.31770896911621, 5)"><text dy="1em" alignment-baseline="middle" text-anchor="middle"><tspan x="0" dy="1em">Media</tspan></text></g></g><g class="mindmap-node section-5" transform="translate(271.9002631706288, 189.59638347704322)"><g transform="translate(28.25, 18.73333396911621)"><circle id="node-20" class="node-bkg node-circle" r="28.25"></circle></g><g transform="translate(28.25, 5)"><text dy="1em" alignment-baseline="middle" text-anchor="middle"><tspan x="0" dy="1em">Basic</tspan></text></g></g><g class="mindmap-node section-5" transform="translate(25.883898264486902, 219.3809173876923)"><g><path id="node-21" class="node-bkg node-no-border" d="M0 32.46666793823242 v-27.46666793823242 q0,-5 5,-5 h166.6041717529297 q5,0 5,5 v32.46666793823242 H0 Z"></path><line class="node-line-5" x1="0" y1="37.46666793823242" x2="176.6041717529297" y2="37.46666793823242"></line></g><g transform="translate(88.30208587646484, 5)"><text dy="1em" alignment-baseline="middle" text-anchor="middle"><tspan x="0" dy="1em">Computer   Networking</tspan></text></g></g><g class="mindmap-node section-5" transform="translate(288.5477441859431, 266.2568918246295)"><g><path id="node-22" class="node-bkg node-no-border" d="M0 32.46666793823242 v-27.46666793823242 q0,-5 5,-5 h135.96875 q5,0 5,5 v32.46666793823242 H0 Z"></path><line class="node-line-5" x1="0" y1="37.46666793823242" x2="145.96875" y2="37.46666793823242"></line></g><g transform="translate(72.984375, 5)"><text dy="1em" alignment-baseline="middle" text-anchor="middle"><tspan x="0" dy="1em">Operating   System</tspan></text></g></g><g class="mindmap-node section-5" transform="translate(216.15571045725108, 76.0551985165207)"><g><path id="node-23" class="node-bkg node-no-border" d="M0 50.06666641235351 v-45.06666641235351 q0,-5 5,-5 h145.625 q5,0 5,5 v50.06666641235351 H0 Z"></path><line class="node-line-5" x1="0" y1="55.06666641235351" x2="155.625" y2="55.06666641235351"></line></g><g transform="translate(77.8125, 5)"><text dy="1em" alignment-baseline="middle" text-anchor="middle"><tspan x="0" dy="1em">Data   Structure   and</tspan><tspan x="0" dy="1.1em">Algorithms</tspan></text></g></g><g class="mindmap-node section-5" transform="translate(15, 134.43280783521004)"><g><path id="node-24" class="node-bkg node-no-border" d="M0 50.06666641235351 v-45.06666641235351 q0,-5 5,-5 h173.9869842529297 q5,0 5,5 v50.06666641235351 H0 Z"></path><line class="node-line-5" x1="0" y1="55.06666641235351" x2="183.9869842529297" y2="55.06666641235351"></line></g><g transform="translate(91.99349212646484, 5)"><text dy="1em" alignment-baseline="middle" text-anchor="middle"><tspan x="0" dy="1em">Principles   of   Computer</tspan><tspan x="0" dy="1.1em">System   Composition</tspan></text></g></g><g class="mindmap-node section-5" transform="translate(178.578640904915, 265.47678004757677)"><g><path id="node-25" class="node-bkg node-no-border" d="M0 32.46666793823242 v-27.46666793823242 q0,-5 5,-5 h75.5 q5,0 5,5 v32.46666793823242 H0 Z"></path><line class="node-line-5" x1="0" y1="37.46666793823242" x2="85.5" y2="37.46666793823242"></line></g><g transform="translate(42.75, 5)"><text dy="1em" alignment-baseline="middle" text-anchor="middle"><tspan x="0" dy="1em">Database</tspan></text></g></g></g></svg>