<svg xmlns="http://www.w3.org/2000/svg" xmlns:xlink="http://www.w3.org/1999/xlink" viewBox="0 0 384 384"><defs><style>.a{stroke:#231815;stroke-miterlimit:10;fill:url(#a);}.b{isolation:isolate;}.c{fill:#fff9aa;}</style><linearGradient id="a" x1="0.17" y1="191.89" x2="383.17" y2="191.89" gradientTransform="matrix(1, 0, 0, -1, 0.33, 383.89)" gradientUnits="userSpaceOnUse"><stop offset="0" stop-color="#1d2088"/><stop offset="1" stop-color="#2ea7e0"/></linearGradient></defs><rect class="a" x="0.5" y="0.5" width="383" height="383" rx="24.21"/><g class="b"><path class="c" d="M4.75,139.24h50q11.13,0,18.91,3.93,9.69,5,16.46,16.55t6.77,27.42a64.64,64.64,0,0,1-4.06,23.55,37.61,37.61,0,0,1-9.45,14.07,40.9,40.9,0,0,1-15.54,9Q61,236,49.5,236H4.75V231.1h9.16q3.47,0,4.8-1.11a4.24,4.24,0,0,0,1.35-3.47V148.6a4,4,0,0,0-1.44-3.24,6,6,0,0,0-4-1.21H4.75Zm35.07,4.91a6.45,6.45,0,0,0-4.36,1.24,4.74,4.74,0,0,0-1.4,3.73v77.21a4.13,4.13,0,0,0,1.63,3.56q1.64,1.22,5.57,1.21H49.5a33.4,33.4,0,0,0,19.37-5.69,23.48,23.48,0,0,0,8.24-10.66Q81,205.45,81,189.1q0-24.21-8.44-35.46-7.2-9.49-21.72-9.49Z" transform="translate(0.33 0)"/><path class="c" d="M151.22,137.21h4.38l34.7,88.53q2.1,5.37,8.58,5.36h3V236H163.28V231.1h3.08q6,0,8.5-1.3a3,3,0,0,0,1.7-2.82,6.91,6.91,0,0,0-.45-2.35l-8-20.55H129.83l-4.5,11.78a22.74,22.74,0,0,0-1.76,7.46,6.75,6.75,0,0,0,3,5.49q3,2.3,8.67,2.29h3.27V236H103.41V231.1c3.75,0,6.72-.81,8.9-2.45s4.19-4.74,6-9.32Zm-1.91,18.65L131.94,199h34.17Z" transform="translate(0.33 0)"/><path class="c" d="M206.33,139.24h47.74q16.17,0,24.69,7.33t8.51,19.17q0,11.85-7.84,18.06-10.79,8.56-26.6,8.57H235.58v33c0,1.92.46,3.3,1.38,4.12a7.25,7.25,0,0,0,4.9,1.57h11V236H206.33V231.1h9.73A6.49,6.49,0,0,0,220.3,230a3.86,3.86,0,0,0,1.35-3.11V149.71a5,5,0,0,0-1.71-4.25c-1.14-.88-3.29-1.31-6.44-1.31h-7.17Zm29.25,48.35h13.13q12.48,0,18-5.2t5.52-17.17q0-8.39-2.48-12.86a15.19,15.19,0,0,0-7.28-6.64q-4.8-2.16-15.77-2.16-7.26,0-9.18,1.37t-1.93,4.78Z" transform="translate(0.33 0)"/><path class="c" d="M368.08,146.77l4.51-9.36h4.12l1.71,38.93H374q-4.32-16.43-10.86-24.21-8.12-9.75-19.37-9.75-12.17,0-19.82,10.86T316.32,190q0,21.8,8.77,33.24,7.46,9.69,20.94,9.69a27.65,27.65,0,0,0,19.76-7.56q8-7.56,10.4-22.8h4.65q-2,17.26-11.85,26.56t-24.73,9.29a42.31,42.31,0,0,1-22.21-6.08,43.79,43.79,0,0,1-16.16-17.5,52.59,52.59,0,0,1-6.06-25,60.79,60.79,0,0,1,6.25-27.16q6.26-12.69,16-19.07a37.67,37.67,0,0,1,21-6.38,35,35,0,0,1,12.17,2.16A51.2,51.2,0,0,1,368.08,146.77Z" transform="translate(0.33 0)"/></g></svg>